{"glyphs":{"0":{"ha":736,"x_min":74,"x_max":660,"o":"m 179 842 q 367 917 251 917 q 588 803 517 917 q 660 449 660 689 q 591 100 660 217 q 368 -17 522 -17 q 146 100 218 -17 q 76 450 74 217 q 81 584 76 525 q 98 690 86 643 q 130 774 110 738 q 179 842 150 811 m 256 115 q 368 68 299 68 q 448 88 414 68 q 504 154 482 108 q 538 273 526 200 q 549 450 549 346 q 538 627 549 554 q 504 746 526 700 q 448 812 482 792 q 368 832 414 832 q 287 812 321 832 q 231 746 253 792 q 198 627 208 700 q 188 450 188 554 q 256 115 188 193 z "},"1":{"ha":736,"x_min":104,"x_max":642,"o":"m 356 88 l 354 175 l 354 567 q 358 739 354 568 q 150 578 281 633 q 104 642 114 601 q 266 769 199 699 q 358 900 333 840 q 408 906 381 906 q 457 900 435 906 l 457 175 l 456 88 l 531 89 l 638 89 q 642 44 642 65 q 638 0 642 22 l 146 0 q 142 44 142 22 q 146 89 142 67 l 281 89 l 356 88 z "},"2":{"ha":736,"x_min":86,"x_max":649,"o":"m 649 94 q 635 23 649 46 q 576 0 622 0 l 136 0 q 88 69 88 38 q 133 197 86 131 q 269 342 179 263 l 397 453 q 488 555 458 506 q 518 674 518 604 q 474 785 518 742 q 367 829 431 829 q 253 792 303 829 q 174 692 203 754 q 97 732 115 699 q 140 805 114 771 q 203 864 167 839 q 283 903 239 889 q 381 917 328 917 q 478 898 433 917 q 557 846 524 879 q 609 767 590 813 q 628 669 628 722 q 615 576 628 617 q 578 501 601 536 q 522 435 554 467 q 451 369 489 404 l 340 274 q 192 88 201 154 q 272 92 231 90 q 358 94 314 94 l 649 94 z "},"3":{"ha":736,"x_min":76,"x_max":646,"o":"m 592 778 l 425 596 q 368 546 413 581 l 385 546 q 486 529 439 546 q 569 479 533 513 q 626 395 606 446 q 646 275 646 344 q 622 153 646 207 q 553 61 597 99 q 455 3 510 24 q 342 -17 400 -17 q 76 68 179 -17 q 125 142 88 114 q 319 69 222 69 q 478 126 419 69 q 536 278 536 182 q 490 421 536 372 q 371 469 443 469 q 256 443 299 469 q 210 500 219 463 l 408 719 q 461 774 438 751 q 503 813 485 797 l 499 818 q 434 810 476 813 q 325 807 392 807 l 111 807 q 107 843 107 824 q 115 900 107 868 l 590 900 q 615 828 615 854 q 592 778 615 804 z "},"4":{"ha":736,"x_min":67,"x_max":674,"o":"m 522 211 l 524 151 l 524 0 q 471 -4 500 -4 q 421 0 442 -4 l 421 151 l 422 211 l 364 210 l 92 210 q 67 269 67 254 q 96 356 67 285 l 338 907 q 388 907 358 913 q 436 890 418 901 l 239 440 q 172 299 186 325 l 175 294 q 321 299 254 299 l 422 299 l 421 353 l 421 497 q 486 572 421 572 l 518 572 l 524 568 l 524 357 l 522 299 l 578 300 l 671 300 q 674 257 674 283 q 667 210 674 231 l 578 210 l 522 211 z "},"5":{"ha":736,"x_min":92,"x_max":647,"o":"m 600 900 q 607 857 607 875 q 560 807 607 807 l 311 807 q 265 807 285 807 q 235 808 246 807 l 235 719 l 225 557 q 374 596 297 596 q 572 520 496 596 q 647 297 647 444 q 624 167 647 225 q 558 68 601 108 q 458 6 515 28 q 333 -17 400 -17 q 92 67 197 -17 q 139 139 99 111 q 240 86 190 103 q 335 69 290 69 q 479 130 422 69 q 536 301 536 190 q 522 399 536 360 q 480 463 507 439 q 417 499 453 488 q 339 510 381 510 q 171 439 251 510 q 122 474 140 443 l 140 892 l 149 900 l 600 900 z "},"6":{"ha":736,"x_min":83,"x_max":664,"o":"m 185 64 l 164 89 q 133 143 147 107 q 107 228 118 179 q 90 337 96 278 q 83 461 83 396 q 106 651 83 567 q 172 795 128 736 q 280 885 215 854 q 429 917 344 917 q 615 875 546 917 q 574 799 608 821 q 432 831 503 831 q 326 806 371 831 q 253 739 282 782 q 209 636 224 696 q 193 506 194 576 q 407 599 286 599 q 597 522 529 599 q 664 303 664 446 q 644 175 664 233 q 586 74 624 117 q 497 7 549 31 q 382 -17 444 -17 q 185 64 257 -17 m 385 507 q 283 480 336 507 q 193 407 231 453 l 193 385 q 205 256 193 314 q 240 156 217 197 q 299 91 264 114 q 383 68 335 68 q 508 128 463 68 q 554 292 554 188 q 385 507 554 507 z "},"7":{"ha":736,"x_min":96,"x_max":663,"o":"m 104 900 l 642 900 q 663 837 663 863 q 644 783 663 811 l 601 721 q 423 394 485 544 q 340 42 361 244 l 336 0 q 279 -6 315 -6 q 225 0 243 -6 l 231 53 q 474 693 267 388 l 488 714 q 560 813 507 743 l 556 817 q 332 807 517 807 l 100 807 q 96 849 96 825 q 104 900 96 872 z "},"8":{"ha":736,"x_min":75,"x_max":660,"o":"m 75 225 q 122 369 75 304 q 244 471 169 435 q 100 683 100 544 q 121 778 100 735 q 178 851 142 821 q 263 899 214 882 q 368 917 311 917 q 473 900 424 917 q 558 853 522 883 q 614 781 593 822 q 635 690 635 740 q 596 566 635 619 q 494 481 557 513 q 660 236 660 399 q 637 131 660 178 q 573 51 614 85 q 477 1 532 18 q 360 -17 422 -17 q 243 0 296 -17 q 153 48 190 17 q 95 124 115 79 q 75 225 75 168 m 331 439 l 329 439 q 222 354 261 410 q 183 224 183 299 q 197 158 183 188 q 235 108 211 129 q 293 76 260 88 q 364 64 326 64 q 437 76 403 64 q 496 110 471 88 q 535 165 521 133 q 550 236 550 196 q 535 308 550 276 q 492 365 519 340 q 428 406 465 389 q 349 435 392 424 l 331 439 m 393 517 l 410 511 q 497 585 465 539 q 528 693 528 631 q 515 750 528 724 q 481 795 503 776 q 430 825 460 814 q 367 836 400 836 q 254 794 300 836 q 208 686 208 753 q 393 517 208 563 z "},"9":{"ha":736,"x_min":72,"x_max":653,"o":"m 551 836 l 572 811 q 604 756 588 792 q 631 671 621 719 q 647 563 642 622 q 653 439 653 504 q 631 249 653 333 q 565 105 608 164 q 456 15 521 46 q 307 -17 392 -17 q 121 25 189 -17 q 163 101 128 79 q 304 69 233 69 q 408 94 364 69 q 483 162 453 118 q 527 265 513 206 q 543 394 542 324 q 329 301 450 301 q 140 377 207 301 q 72 596 72 453 q 93 726 72 667 q 151 827 114 785 q 240 893 188 869 q 354 917 292 917 q 551 836 479 917 m 351 393 q 453 419 400 393 q 543 492 506 446 l 543 515 q 531 646 543 588 q 495 746 519 704 q 435 810 471 788 q 351 832 399 832 q 228 772 275 832 q 182 608 182 713 q 351 393 182 393 z "},"\r":{"ha":258,"x_min":0,"x_max":0,"o":""}," ":{"ha":306,"x_min":0,"x_max":0,"o":""},"!":{"ha":385,"x_min":117,"x_max":267,"o":"m 150 258 l 140 926 q 251 957 181 957 l 258 950 l 232 258 q 213 254 224 256 q 192 253 203 253 q 150 258 165 253 m 126 115 q 193 131 154 131 q 222 129 208 131 q 246 122 236 128 q 261 101 256 115 q 267 60 267 86 q 261 19 267 33 q 246 -2 256 4 q 222 -9 236 -8 q 192 -10 208 -10 q 161 -9 175 -10 q 138 -2 147 -8 q 122 19 128 4 q 117 60 117 33 q 126 115 117 100 z "},"\"":{"ha":493,"x_min":69,"x_max":425,"o":"m 299 1022 q 358 1038 321 1038 q 417 1022 394 1038 q 425 976 425 993 q 419 925 425 958 q 386 718 397 817 q 358 711 376 711 q 328 718 340 711 q 305 883 319 807 q 290 976 290 958 q 299 1022 290 993 m 78 1022 q 137 1038 101 1038 q 196 1022 172 1038 q 204 976 204 993 q 197 925 204 958 q 165 718 176 817 q 138 711 156 711 q 107 718 119 711 q 84 883 99 807 q 69 976 69 958 q 78 1022 69 993 z "},"#":{"ha":840,"x_min":25,"x_max":817,"o":"m 564 665 l 613 878 q 660 883 631 883 q 710 878 690 883 l 661 665 l 801 665 q 801 575 817 619 l 642 575 l 585 322 l 739 322 q 739 232 757 276 l 564 232 l 517 19 q 469 11 500 11 q 421 19 438 11 l 468 232 l 288 232 l 240 19 q 192 11 224 11 q 143 19 160 11 l 190 232 l 43 232 q 43 322 25 278 l 211 322 l 268 575 l 104 575 q 104 665 89 619 l 288 665 l 336 878 q 384 883 354 883 q 433 878 414 883 l 385 665 l 564 665 m 365 575 l 308 322 l 488 322 l 544 575 l 365 575 z "},"$":{"ha":686,"x_min":54,"x_max":621,"o":"m 54 140 q 99 224 56 190 q 353 144 233 144 q 469 174 424 144 q 514 257 514 203 q 484 335 514 301 q 392 392 454 369 l 249 443 q 86 633 86 501 q 138 768 86 713 q 286 838 190 824 l 286 954 q 306 958 293 957 q 331 958 318 958 q 378 954 361 958 l 378 840 q 593 782 485 833 q 554 699 593 729 q 340 751 444 751 q 231 722 272 751 q 190 647 190 693 q 217 578 190 601 q 303 535 243 556 l 442 485 q 571 402 521 457 q 621 263 621 347 q 604 184 621 221 q 556 119 588 147 q 477 73 524 90 q 372 54 431 56 l 372 -53 q 349 -56 361 -56 q 325 -56 338 -56 q 302 -56 314 -56 q 281 -53 290 -56 l 281 58 q 54 140 149 75 z "},"%":{"ha":1196,"x_min":69,"x_max":1128,"o":"m 1061 39 q 919 -17 1006 -17 q 767 51 822 -17 q 711 260 711 118 q 765 467 711 400 q 919 535 819 535 q 1074 467 1019 535 q 1128 260 1128 399 q 1061 39 1128 107 m 918 461 q 806 258 806 461 q 918 57 806 57 q 1032 258 1032 57 q 918 461 1032 461 m 419 910 q 485 690 485 842 q 429 481 485 549 q 276 414 374 414 q 125 481 181 414 q 69 690 69 549 q 123 897 69 829 q 276 965 176 965 q 419 910 368 965 m 276 892 q 164 689 164 892 q 276 488 164 488 q 390 689 390 488 q 276 892 390 892 m 285 0 l 808 949 q 860 956 826 956 q 889 953 875 956 q 911 949 903 951 l 389 0 q 365 -6 379 -4 q 336 -7 351 -7 q 307 -6 321 -7 q 285 0 293 -4 z "},"&":{"ha":839,"x_min":78,"x_max":806,"o":"m 667 204 l 675 0 q 625 -4 654 -4 q 575 0 596 -4 l 567 54 q 336 -17 460 -17 q 146 56 214 -17 q 78 250 78 129 q 92 338 78 296 q 133 413 107 379 q 192 472 158 447 q 263 508 225 497 q 158 590 200 531 q 117 721 117 649 q 137 817 117 772 q 194 895 157 863 q 284 947 232 928 q 401 965 336 965 q 460 963 421 965 q 537 955 499 960 q 633 926 575 950 q 604 842 633 871 q 497 867 546 858 q 408 876 449 876 q 276 833 322 876 q 229 714 229 789 q 276 595 229 639 q 419 551 324 551 l 668 551 q 792 569 754 551 q 806 518 806 551 q 715 460 806 460 l 665 460 l 665 372 l 667 204 m 564 371 q 564 422 564 399 q 565 460 564 444 l 407 460 q 312 442 353 460 q 244 397 271 425 q 203 330 217 368 q 190 250 190 292 q 235 119 190 167 q 358 72 279 72 q 564 143 478 72 l 564 371 z "},"'":{"ha":269,"x_min":63,"x_max":197,"o":"m 71 1022 q 130 1038 94 1038 q 189 1022 165 1038 q 197 976 197 993 q 192 925 197 958 q 158 718 169 817 q 131 711 149 711 q 100 718 113 711 q 77 883 92 807 q 63 976 63 958 q 71 1022 63 993 z "},"(":{"ha":428,"x_min":90,"x_max":408,"o":"m 408 -176 q 344 -236 390 -221 q 239 -97 286 -178 q 159 75 192 -17 q 108 264 126 167 q 90 453 90 361 q 108 642 90 544 q 159 831 126 739 q 239 1002 192 922 q 344 1140 286 1082 q 408 1082 390 1129 q 204 453 204 825 q 408 -176 204 79 z "},")":{"ha":428,"x_min":18,"x_max":338,"o":"m 18 1082 q 83 1140 39 1129 q 188 1002 142 1082 q 268 831 235 922 q 319 642 301 739 q 338 453 338 544 q 319 264 338 361 q 269 75 301 167 q 189 -97 236 -17 q 83 -236 142 -178 q 18 -176 39 -221 q 224 453 224 79 q 18 1082 224 826 z "},"*":{"ha":688,"x_min":65,"x_max":621,"o":"m 68 781 q 76 828 65 800 q 100 874 86 857 l 167 853 q 314 782 203 842 q 293 944 293 874 l 294 1015 q 344 1024 313 1024 q 393 1015 375 1024 l 394 944 q 372 781 396 900 q 522 853 467 836 l 589 872 q 612 830 603 858 q 619 779 621 801 l 553 757 q 390 726 500 739 q 506 606 469 657 l 544 549 q 510 513 533 531 q 464 492 486 496 l 424 547 q 343 692 389 589 q 265 547 304 597 l 222 492 q 178 513 203 496 q 143 550 154 531 l 183 606 q 297 726 210 642 q 135 757 193 735 l 68 781 z "},"+":{"ha":736,"x_min":76,"x_max":660,"o":"m 318 450 l 317 503 l 317 703 q 369 708 338 708 q 419 703 401 708 l 419 503 q 418 450 419 503 l 469 451 l 654 451 q 660 401 660 421 q 654 356 660 381 l 469 356 l 418 357 l 419 304 l 419 104 q 369 99 401 99 q 317 104 338 99 l 317 304 l 318 357 l 267 356 l 82 356 q 76 403 76 372 q 82 451 76 433 l 267 451 l 318 450 z "},",":{"ha":353,"x_min":56,"x_max":267,"o":"m 251 126 q 267 44 267 99 q 220 -108 267 -40 q 85 -210 174 -176 q 62 -186 68 -200 q 56 -153 56 -172 q 163 -12 161 -100 q 128 -3 140 -8 q 108 10 115 1 q 99 32 101 18 q 97 67 97 46 q 104 111 97 96 q 123 133 111 126 q 151 141 135 140 q 185 142 167 142 q 251 126 229 142 z "},"-":{"ha":465,"x_min":68,"x_max":397,"o":"m 393 321 l 74 321 q 68 367 68 338 q 74 417 68 396 l 393 417 q 397 367 397 394 q 393 321 397 339 z "},".":{"ha":347,"x_min":90,"x_max":257,"o":"m 101 4 q 90 65 90 24 q 97 110 90 94 q 115 133 103 126 q 142 141 126 140 q 175 142 157 142 q 208 141 193 142 q 233 133 222 140 q 251 110 244 125 q 257 65 257 94 q 253 24 257 39 q 239 1 249 8 q 214 -8 229 -6 q 176 -10 199 -10 q 101 4 128 -10 z "},"/":{"ha":565,"x_min":14,"x_max":546,"o":"m 14 -112 l 454 1053 q 546 1018 508 1047 l 106 -147 q 14 -112 60 -147 z "},":":{"ha":353,"x_min":93,"x_max":260,"o":"m 104 4 q 93 65 93 24 q 99 110 93 94 q 117 133 106 126 q 144 141 129 140 q 178 142 160 142 q 210 141 196 142 q 236 133 225 140 q 253 110 247 125 q 260 65 260 94 q 256 24 260 39 q 242 1 251 8 q 217 -8 232 -6 q 179 -10 201 -10 q 104 4 131 -10 m 104 476 q 93 538 93 496 q 99 583 93 567 q 117 606 106 599 q 144 613 129 613 q 178 614 160 614 q 210 613 196 614 q 236 605 225 613 q 253 582 247 597 q 260 538 260 567 q 256 496 260 511 q 242 474 251 481 q 217 465 232 467 q 179 463 201 463 q 104 476 131 463 z "},";":{"ha":358,"x_min":53,"x_max":264,"o":"m 249 126 q 264 44 264 99 q 217 -108 264 -40 q 82 -210 171 -176 q 59 -186 65 -200 q 53 -153 53 -172 q 160 -12 158 -100 q 125 -3 138 -8 q 106 10 113 1 q 97 32 99 18 q 94 67 94 46 q 101 111 94 96 q 120 133 108 126 q 148 141 132 140 q 182 142 164 142 q 249 126 226 142 m 107 476 q 96 538 96 496 q 102 583 96 567 q 120 606 108 599 q 147 613 132 613 q 181 614 163 614 q 213 613 199 614 q 239 605 228 613 q 256 582 250 597 q 263 538 263 567 q 258 496 263 511 q 244 474 254 481 q 219 465 235 467 q 182 463 204 463 q 107 476 133 463 z "},"<":{"ha":736,"x_min":64,"x_max":650,"o":"m 76 446 l 600 732 q 650 649 644 701 l 278 453 q 226 427 264 446 q 185 407 188 408 l 185 397 q 226 377 188 396 q 278 351 264 358 l 650 156 q 600 72 642 101 l 76 358 q 76 446 64 410 z "},"=":{"ha":736,"x_min":76,"x_max":660,"o":"m 654 238 l 82 238 q 76 285 76 256 q 82 333 76 315 l 654 333 q 660 285 660 315 q 654 238 660 256 m 654 476 l 82 476 q 76 524 76 494 q 82 574 76 553 l 654 574 q 660 524 660 553 q 654 476 660 494 z "},">":{"ha":736,"x_min":86,"x_max":672,"o":"m 660 360 l 135 74 q 86 157 92 106 l 458 353 q 510 378 472 360 q 551 399 549 397 l 551 408 q 510 428 549 410 q 458 454 472 447 l 86 650 q 136 733 92 703 l 660 447 q 660 360 672 396 z "},"?":{"ha":531,"x_min":22,"x_max":517,"o":"m 22 900 q 264 964 146 964 q 449 902 382 964 q 517 736 517 840 q 336 471 517 576 l 249 419 l 238 258 q 197 253 222 253 q 157 258 172 253 l 151 465 l 160 479 l 224 513 q 360 615 315 560 q 406 728 406 669 q 366 829 406 790 q 251 868 326 868 q 164 856 211 868 q 61 818 117 844 q 22 900 26 849 m 133 115 q 199 129 161 129 q 229 128 215 129 q 253 122 243 128 q 268 101 263 115 q 274 60 274 86 q 268 19 274 33 q 253 -2 263 4 q 229 -9 243 -8 q 199 -10 215 -10 q 168 -9 182 -10 q 144 -2 154 -8 q 129 19 135 4 q 124 60 124 33 q 133 115 124 100 z "},"@":{"ha":1294,"x_min":79,"x_max":1229,"o":"m 896 574 l 894 214 q 911 126 894 151 q 965 101 928 101 q 1028 119 999 101 q 1078 175 1057 138 q 1113 269 1100 213 q 1126 403 1126 325 q 1094 586 1126 503 q 1001 729 1061 669 q 855 822 940 789 q 664 856 769 856 q 472 815 560 856 q 319 702 383 774 q 219 532 256 631 q 183 318 183 433 q 215 113 183 203 q 302 -40 246 22 q 438 -135 358 -103 q 614 -168 518 -168 q 900 -118 781 -168 q 931 -193 931 -143 q 608 -250 772 -250 q 394 -212 492 -250 q 227 -101 297 -174 q 118 77 157 -28 q 79 315 79 182 q 124 562 79 449 q 246 758 168 675 q 431 888 324 840 q 665 935 539 935 q 896 895 792 935 q 1074 785 1000 856 q 1188 615 1147 714 q 1229 399 1229 517 q 1208 242 1229 313 q 1149 123 1186 172 q 1061 47 1111 74 q 956 19 1011 19 q 807 111 842 19 q 717 40 769 68 q 610 13 665 13 q 450 94 510 13 q 390 318 390 175 q 409 451 390 388 q 463 561 428 514 q 550 636 499 608 q 667 664 601 664 q 896 574 794 664 m 629 99 q 674 107 650 99 q 719 130 697 115 q 761 165 742 144 q 794 207 781 185 l 794 535 q 665 585 744 585 q 593 563 625 585 q 540 506 561 542 q 506 422 518 469 q 494 324 494 375 q 528 158 494 218 q 629 99 561 99 z "},"A":{"ha":828,"x_min":36,"x_max":792,"o":"m 599 247 l 501 246 l 315 246 l 218 247 l 138 -1 q 93 -6 119 -6 q 39 1 67 -6 l 36 6 l 354 949 q 417 953 378 953 q 474 949 456 953 l 792 6 q 736 -8 769 -8 q 689 3 703 -8 q 665 47 675 14 l 599 247 m 249 338 l 329 339 l 489 339 q 523 338 490 339 q 569 338 556 338 l 482 601 q 411 833 429 764 l 404 833 q 357 668 378 731 l 249 338 z "},"B":{"ha":833,"x_min":138,"x_max":754,"o":"m 146 0 l 138 8 l 138 940 l 146 949 l 417 953 q 638 887 568 953 q 708 703 708 821 q 672 581 708 635 q 572 506 636 528 q 643 472 610 494 q 701 417 676 450 q 740 342 726 385 q 754 250 754 300 q 735 156 754 201 q 678 74 717 110 q 578 17 639 39 q 432 -4 517 -4 l 146 0 m 243 83 l 440 85 q 538 101 499 85 q 599 142 576 117 q 632 200 622 167 q 642 269 642 233 q 631 333 642 300 q 594 392 619 365 q 528 437 569 419 q 428 454 488 454 l 243 454 l 243 83 m 243 865 l 243 543 l 414 543 q 501 556 465 543 q 558 590 536 568 q 588 642 579 613 q 597 704 597 671 q 418 864 597 864 q 313 864 356 864 q 243 865 269 864 z "},"C":{"ha":833,"x_min":79,"x_max":768,"o":"m 661 649 q 649 731 661 690 q 610 805 638 772 q 541 857 583 838 q 439 876 499 876 q 256 772 321 876 q 192 476 192 668 q 258 180 192 283 q 447 76 325 76 q 697 186 571 76 q 756 117 740 161 q 612 20 697 57 q 431 -17 526 -17 q 271 22 338 -17 q 162 126 204 60 q 99 281 119 193 q 79 469 79 369 q 107 686 79 593 q 183 841 135 779 q 297 934 232 903 q 438 965 363 965 q 574 943 513 965 q 678 885 635 921 q 744 801 721 849 q 768 704 768 754 q 708 642 768 642 q 661 649 689 642 z "},"D":{"ha":886,"x_min":138,"x_max":804,"o":"m 661 65 q 614 35 642 49 q 555 13 586 22 q 492 -1 524 4 q 438 -6 461 -6 q 340 -4 413 -6 q 146 0 268 -3 l 138 8 l 138 940 l 146 949 q 428 953 267 953 q 608 915 536 953 q 724 813 681 878 q 786 660 768 749 q 804 472 804 572 q 798 344 804 403 q 775 235 792 285 q 731 142 758 185 q 661 65 703 100 m 243 85 l 426 83 q 557 115 506 83 q 638 197 608 146 q 680 313 668 249 q 692 440 692 376 q 682 611 692 533 q 642 745 672 689 q 557 833 611 801 q 426 864 503 864 l 243 865 l 243 85 z "},"E":{"ha":782,"x_min":138,"x_max":706,"o":"m 240 143 l 239 90 q 325 93 286 93 l 706 93 q 703 49 706 64 q 635 0 693 0 l 197 0 q 153 19 169 0 q 138 69 138 38 l 138 940 l 146 949 l 682 949 q 685 905 685 932 q 678 857 685 878 l 239 857 l 240 771 l 240 525 l 324 526 l 611 526 q 615 480 615 501 q 611 435 615 458 l 324 435 q 240 436 271 435 l 240 143 z "},"F":{"ha":714,"x_min":138,"x_max":679,"o":"m 243 525 l 319 526 l 604 526 q 608 480 608 501 q 604 435 608 458 l 319 435 q 243 436 271 435 l 243 0 q 190 -4 222 -4 q 138 0 158 -4 l 138 940 l 146 949 l 672 949 q 679 904 679 928 q 614 856 679 856 l 393 856 q 242 858 283 856 l 243 664 l 243 525 z "},"G":{"ha":885,"x_min":79,"x_max":788,"o":"m 493 478 l 704 478 q 768 460 749 478 q 788 404 788 443 l 788 44 q 457 -17 639 -17 q 278 24 354 -17 q 160 136 201 65 q 79 468 79 275 q 113 697 79 599 q 204 853 147 796 q 474 965 317 965 q 643 938 558 965 q 786 861 728 910 q 729 779 775 810 q 467 869 617 869 q 269 774 347 869 q 192 467 192 678 q 476 76 192 76 q 683 108 588 76 l 683 297 q 685 382 683 358 l 533 382 q 485 432 485 382 q 493 478 485 450 z "},"H":{"ha":928,"x_min":138,"x_max":790,"o":"m 686 536 l 685 639 l 685 949 q 735 953 703 953 q 790 949 767 953 l 790 0 q 736 -4 767 -4 q 685 0 706 -4 l 685 342 l 686 444 l 601 443 l 326 443 l 242 444 l 243 342 l 243 0 q 190 -4 222 -4 q 138 0 158 -4 l 138 949 q 190 953 158 953 q 243 949 222 953 l 243 639 l 242 536 l 326 538 l 601 538 l 686 536 z "},"I":{"ha":392,"x_min":143,"x_max":249,"o":"m 143 0 l 143 949 q 194 953 163 953 q 249 949 225 953 l 249 0 q 194 -4 225 -4 q 143 0 163 -4 z "},"J":{"ha":606,"x_min":14,"x_max":488,"o":"m 57 125 q 221 78 133 78 q 345 131 310 78 q 381 314 381 185 l 381 949 q 435 953 403 953 q 488 949 467 953 l 488 335 q 482 222 488 268 q 466 142 476 175 q 443 89 456 110 q 417 53 431 68 q 231 -14 356 -14 q 14 43 108 -14 q 57 125 24 90 z "},"K":{"ha":810,"x_min":138,"x_max":779,"o":"m 779 29 q 715 -7 756 -7 q 658 9 674 -7 q 629 63 643 25 l 540 289 q 466 408 507 374 q 363 442 425 442 q 243 439 301 442 l 243 0 q 190 -4 222 -4 q 138 0 158 -4 l 138 949 q 190 953 158 953 q 243 949 222 953 l 243 533 l 344 536 q 392 569 371 536 l 596 900 q 628 940 614 929 q 664 951 642 951 q 728 949 686 951 l 736 938 l 503 560 q 460 508 482 526 q 564 458 526 499 q 638 331 601 417 l 722 114 q 779 29 746 56 z "},"L":{"ha":703,"x_min":138,"x_max":660,"o":"m 364 94 l 660 94 q 656 49 660 64 q 588 0 647 0 l 199 0 q 155 19 172 0 q 138 71 138 38 l 138 944 l 146 953 l 188 953 q 232 937 221 953 q 243 883 243 921 l 243 90 q 364 94 306 94 z "},"M":{"ha":1101,"x_min":117,"x_max":985,"o":"m 117 1 l 190 949 q 262 953 217 953 q 331 949 307 953 l 490 461 q 524 350 503 426 q 547 258 544 274 l 554 258 q 611 461 574 354 l 771 949 q 841 953 800 953 q 911 949 882 953 l 985 1 q 933 -6 960 -6 q 882 -1 906 -6 l 842 574 q 831 836 838 636 l 824 836 l 604 149 q 549 143 571 143 q 499 149 526 143 l 278 836 l 271 836 q 266 705 269 801 q 260 574 263 608 l 221 -1 q 168 -6 196 -6 q 117 1 140 -6 z "},"N":{"ha":932,"x_min":138,"x_max":796,"o":"m 788 953 l 796 946 l 796 0 q 731 -4 769 -4 q 664 0 692 -4 l 326 629 q 232 821 285 707 l 228 821 q 236 521 236 563 l 236 0 q 185 -4 207 -4 q 138 0 163 -4 l 138 949 q 201 953 163 953 q 267 949 239 953 l 604 319 q 701 124 638 260 l 706 124 q 696 440 696 301 l 696 883 q 707 937 696 921 q 751 953 718 953 l 788 953 z "},"O":{"ha":907,"x_min":79,"x_max":828,"o":"m 203 615 q 194 547 196 582 q 192 475 192 511 q 201 342 192 413 q 239 212 211 272 q 318 112 267 151 q 453 72 369 72 q 550 92 508 72 q 621 142 592 111 q 667 215 650 174 q 695 302 685 257 q 710 392 706 347 q 714 475 714 436 q 704 607 714 536 q 666 738 694 678 q 587 837 638 797 q 453 876 536 876 q 346 853 390 876 q 273 794 301 831 q 228 710 244 757 q 203 615 213 664 m 226 64 q 79 474 79 194 q 103 674 79 583 q 175 830 128 765 q 292 930 222 894 q 453 965 363 965 q 619 926 549 965 q 737 819 690 886 q 806 663 783 751 q 828 475 828 574 q 803 274 828 365 q 732 119 779 183 q 615 19 685 54 q 453 -17 544 -17 q 226 64 315 -17 z "},"P":{"ha":772,"x_min":138,"x_max":717,"o":"m 146 949 l 411 953 q 536 933 479 953 q 633 876 593 914 q 694 782 672 838 q 717 656 717 726 q 633 435 717 513 q 411 357 550 357 l 243 357 l 243 0 q 190 -4 222 -4 q 138 0 158 -4 l 138 940 l 146 949 m 243 865 l 243 444 q 313 446 271 446 q 414 446 356 446 q 503 463 467 446 q 563 510 540 481 q 594 578 585 539 q 604 660 604 617 q 594 736 604 699 q 562 801 585 774 q 501 847 539 829 q 406 864 463 864 q 310 864 350 864 q 243 865 269 864 z "},"Q":{"ha":892,"x_min":79,"x_max":813,"o":"m 642 -136 l 472 -15 l 453 -17 q 172 113 265 -17 q 79 474 79 242 q 102 680 79 589 q 171 835 125 771 q 285 932 217 899 q 444 965 354 965 q 605 931 536 965 q 719 834 674 897 q 789 681 765 771 q 813 478 813 590 q 798 315 813 390 q 756 179 783 239 q 687 78 728 119 q 597 19 646 38 l 628 -1 q 688 -42 663 -26 q 732 -67 713 -57 q 768 -80 751 -76 q 804 -85 785 -83 q 779 -142 801 -121 q 722 -164 757 -164 q 642 -136 682 -164 m 444 876 q 192 476 192 876 q 444 76 192 76 q 699 476 699 76 q 444 876 699 876 z "},"R":{"ha":822,"x_min":138,"x_max":771,"o":"m 146 949 l 426 953 q 649 881 569 953 q 728 678 728 808 q 679 517 728 585 q 546 425 631 450 q 639 313 603 407 l 711 125 q 742 62 726 86 q 771 26 757 38 q 697 -8 749 -8 q 652 7 668 -8 q 621 61 636 22 l 540 272 q 484 367 517 335 q 388 400 451 400 l 243 400 l 243 0 q 189 -4 218 -4 q 138 0 158 -4 l 138 940 l 146 949 m 243 865 l 243 489 q 315 491 272 490 q 415 492 357 492 q 512 507 474 492 q 574 547 550 522 q 607 606 597 572 q 617 678 617 640 q 607 751 617 717 q 574 810 597 785 q 510 849 550 835 q 411 864 471 864 q 311 864 353 864 q 243 865 269 864 z "},"S":{"ha":771,"x_min":54,"x_max":703,"o":"m 54 88 q 103 172 58 139 q 381 76 244 76 q 536 118 479 76 q 593 232 593 160 q 446 404 593 339 l 283 475 q 96 708 96 556 q 118 808 96 761 q 180 890 140 856 q 275 945 219 925 q 399 965 331 965 q 674 899 533 965 q 631 810 674 844 q 505 860 563 844 q 399 875 447 875 q 319 863 354 875 q 258 830 283 850 q 218 783 232 810 q 204 726 204 756 q 240 631 204 665 q 339 571 275 597 l 496 503 q 703 251 703 413 q 621 57 703 131 q 367 -17 539 -17 q 54 88 197 -17 z "},"T":{"ha":671,"x_min":25,"x_max":649,"o":"m 465 857 l 389 858 l 389 0 q 336 -4 367 -4 q 282 0 306 -4 l 282 858 l 207 857 l 29 857 q 25 902 25 881 q 29 949 25 924 l 640 949 q 649 904 649 931 q 583 857 649 857 l 465 857 z "},"U":{"ha":925,"x_min":126,"x_max":800,"o":"m 800 949 l 800 324 q 776 177 800 240 q 708 71 751 114 q 601 6 664 28 q 463 -17 539 -17 q 324 6 386 -17 q 217 71 261 28 q 150 177 174 114 q 126 324 126 240 l 126 944 l 135 953 l 176 953 q 221 937 210 953 q 232 883 232 921 l 232 325 q 292 137 232 203 q 463 71 353 71 q 633 135 572 71 q 693 325 693 200 l 693 949 q 746 953 714 953 q 800 949 776 953 z "},"V":{"ha":774,"x_min":38,"x_max":744,"o":"m 403 103 l 644 949 q 690 953 664 953 q 739 947 717 953 l 744 939 l 461 -1 q 385 -6 419 -6 q 334 5 351 -6 q 306 50 317 15 l 38 940 q 104 957 74 957 q 163 906 149 957 l 328 346 q 392 115 350 272 q 403 103 394 103 z "},"W":{"ha":1140,"x_min":54,"x_max":1094,"o":"m 233 53 l 54 944 q 110 957 81 957 q 152 944 140 957 q 171 900 164 932 l 274 368 l 321 101 q 324 90 322 92 q 333 88 326 88 l 504 928 q 578 932 535 932 q 644 928 621 932 l 801 101 q 813 88 804 88 q 867 368 825 157 l 989 949 q 1039 953 1010 953 q 1089 947 1068 953 l 1094 940 l 888 1 q 806 -6 853 -6 q 743 6 760 -6 q 721 51 726 18 l 643 463 q 578 817 599 700 l 569 817 q 500 463 529 596 l 403 0 q 305 -6 365 -6 q 233 53 244 -6 z "},"X":{"ha":794,"x_min":32,"x_max":761,"o":"m 628 949 q 647 953 635 951 q 672 954 660 954 q 702 952 688 954 q 726 944 717 950 l 731 936 l 463 503 l 761 17 q 696 -8 729 -8 q 657 2 676 -8 q 622 36 638 13 l 390 413 l 139 0 q 119 -4 131 -3 q 93 -6 107 -6 q 63 -3 78 -6 q 36 4 47 -1 l 32 13 l 336 500 l 71 932 q 103 950 86 943 q 139 957 121 957 q 210 913 182 957 l 408 590 l 628 949 z "},"Y":{"ha":668,"x_min":21,"x_max":650,"o":"m 403 585 l 547 949 q 570 953 558 951 q 594 954 582 954 q 646 947 618 954 l 650 939 l 389 308 l 389 0 q 335 -4 365 -4 q 282 0 303 -4 l 282 313 l 21 936 q 54 952 38 946 q 86 958 71 958 q 122 947 106 958 q 149 907 138 935 l 282 585 q 306 522 292 561 q 339 425 321 483 l 346 425 q 363 477 349 438 q 403 585 378 517 z "},"Z":{"ha":768,"x_min":74,"x_max":693,"o":"m 90 125 l 464 707 q 571 860 485 739 l 567 864 q 349 854 519 854 l 113 854 q 108 896 108 872 q 117 949 108 919 l 667 949 q 682 875 682 894 q 665 826 682 856 l 294 251 q 185 93 282 231 l 189 89 q 335 96 261 96 l 517 96 q 683 118 635 96 q 693 63 693 89 q 615 0 693 0 l 89 0 q 74 74 74 50 q 90 125 74 99 z "},"[":{"ha":439,"x_min":139,"x_max":396,"o":"m 393 -186 l 147 -196 l 139 -187 l 139 1114 l 147 1122 l 393 1113 q 396 1080 396 1101 q 388 1033 396 1058 l 244 1029 l 244 -103 l 388 -107 q 396 -155 396 -135 q 393 -186 396 -175 z "},"\\":{"ha":565,"x_min":18,"x_max":550,"o":"m 458 -147 l 18 1018 q 110 1053 58 1050 l 550 -112 q 458 -147 508 -144 z "},"]":{"ha":439,"x_min":42,"x_max":300,"o":"m 290 -196 l 44 -186 q 42 -155 42 -175 q 50 -107 42 -135 l 193 -103 l 193 1029 l 50 1033 q 42 1080 42 1058 q 44 1113 42 1101 l 290 1122 l 300 1114 l 300 -187 l 290 -196 z "},"^":{"ha":736,"x_min":74,"x_max":663,"o":"m 424 900 l 663 425 q 613 419 647 419 q 557 425 578 419 l 417 713 q 372 813 407 733 l 364 813 l 319 713 l 179 425 q 124 419 158 419 q 74 425 89 419 l 313 900 q 424 900 368 914 z "},"_":{"ha":708,"x_min":-4,"x_max":713,"o":"m 708 -199 l 0 -199 q -4 -156 -4 -182 q 0 -114 -4 -131 l 708 -114 q 713 -156 713 -131 q 708 -199 713 -182 z "},"`":{"ha":553,"x_min":97,"x_max":372,"o":"m 182 1003 l 372 789 q 324 744 357 753 l 97 925 q 182 1003 122 985 z "},"a":{"ha":700,"x_min":71,"x_max":622,"o":"m 622 43 q 575 -10 607 4 q 489 88 507 15 q 279 -17 382 -17 q 188 0 226 -17 q 123 44 149 17 q 84 108 97 72 q 71 185 71 144 q 90 283 71 240 q 141 353 108 325 q 218 394 174 381 q 314 408 263 408 q 483 396 418 408 l 483 465 q 358 607 483 607 q 132 550 263 607 q 96 631 96 582 q 368 696 246 696 q 583 464 583 696 l 583 178 q 592 95 582 128 q 622 43 603 63 m 483 182 l 483 321 q 414 328 450 326 q 338 331 378 331 q 217 294 258 331 q 175 197 175 257 q 204 105 175 139 q 283 71 233 71 q 388 99 335 71 q 483 182 442 128 z "},"b":{"ha":728,"x_min":122,"x_max":657,"o":"m 122 35 l 122 1013 l 131 1021 l 168 1021 q 213 1005 201 1021 q 224 951 224 989 l 224 608 q 422 693 310 693 q 596 599 535 693 q 657 338 657 506 q 634 190 657 254 q 571 81 611 125 q 477 13 531 36 q 364 -10 424 -10 q 122 35 244 -10 m 224 506 l 224 93 q 364 69 286 69 q 499 140 444 69 q 553 344 553 211 q 542 460 553 411 q 510 540 531 508 q 465 588 490 572 q 411 603 440 603 q 305 576 353 603 q 224 506 257 549 z "},"c":{"ha":651,"x_min":72,"x_max":592,"o":"m 493 440 l 493 456 q 485 515 493 486 q 459 567 476 544 q 415 602 442 589 q 350 615 388 615 q 225 543 271 615 q 179 338 179 471 q 224 138 179 204 q 347 72 269 72 q 535 149 429 72 q 583 83 572 126 q 343 -17 476 -17 q 226 10 276 -17 q 142 81 176 36 q 90 188 107 126 q 72 321 72 250 q 94 488 72 417 q 153 606 115 560 q 243 676 192 653 q 353 699 294 699 q 457 680 413 699 q 531 632 501 661 q 576 568 561 603 q 592 503 592 533 q 538 436 592 436 q 493 440 518 436 z "},"d":{"ha":729,"x_min":71,"x_max":643,"o":"m 331 693 q 504 636 414 693 l 504 1013 l 513 1021 l 550 1021 q 593 1005 582 1021 q 604 951 604 989 l 604 192 q 643 43 604 82 q 597 -10 629 6 q 513 83 533 13 q 310 -17 426 -17 q 130 78 189 -17 q 71 340 71 172 q 93 491 71 425 q 151 602 115 557 q 234 670 188 647 q 331 693 281 693 m 324 72 q 420 101 371 72 q 504 179 469 129 l 504 542 q 343 604 413 604 q 224 537 272 604 q 175 335 175 469 q 217 136 175 200 q 324 72 260 72 z "},"e":{"ha":699,"x_min":72,"x_max":618,"o":"m 611 310 l 181 310 q 360 74 188 74 q 561 132 454 74 q 599 61 592 104 q 343 -17 485 -17 q 219 10 271 -17 q 135 85 168 38 q 88 199 103 133 q 72 342 72 264 q 91 486 72 421 q 146 599 110 551 q 233 672 182 646 q 349 699 283 699 q 463 676 413 699 q 548 613 514 653 q 600 519 582 574 q 618 401 618 464 q 616 353 618 376 q 611 310 614 331 m 181 389 l 514 389 l 514 407 q 474 561 514 503 q 353 619 433 619 q 230 557 274 619 q 181 389 186 494 z "},"f":{"ha":444,"x_min":26,"x_max":493,"o":"m 150 0 l 150 604 l 31 603 q 26 642 26 624 q 31 682 26 661 l 146 679 q 138 777 140 742 q 136 824 136 813 q 149 905 136 868 q 188 969 163 942 q 248 1011 213 996 q 328 1026 283 1026 q 493 997 415 1026 q 468 926 493 953 q 397 943 428 938 q 343 949 367 949 q 260 913 289 949 q 232 813 232 878 q 244 679 232 760 l 447 682 q 451 642 451 661 q 447 603 451 624 l 250 604 l 250 0 q 200 -4 229 -4 q 150 0 171 -4 z "},"g":{"ha":728,"x_min":71,"x_max":644,"o":"m 525 624 q 599 692 544 672 q 644 638 632 672 q 606 489 606 600 l 606 53 q 588 -112 606 -44 q 538 -224 571 -181 q 455 -286 504 -267 q 340 -306 406 -306 q 101 -258 210 -306 q 131 -178 103 -210 q 321 -222 224 -222 q 413 -207 376 -222 q 470 -162 449 -192 q 500 -92 492 -133 q 508 0 508 -51 l 508 81 q 306 -11 418 -11 q 132 83 193 -11 q 71 344 71 176 q 92 495 71 429 q 150 606 114 561 q 233 675 186 651 q 333 699 281 699 q 525 624 439 699 m 508 181 l 508 540 q 426 592 468 575 q 347 610 385 610 q 222 542 269 610 q 175 340 175 475 q 216 142 175 207 q 315 78 257 78 q 424 106 374 78 q 508 181 474 135 z "},"h":{"ha":756,"x_min":122,"x_max":657,"o":"m 640 475 l 640 132 q 657 14 640 53 q 592 -8 633 -8 q 539 60 539 -8 l 539 443 q 517 563 539 528 q 439 599 494 599 q 324 569 383 599 q 224 492 264 539 l 224 0 q 172 -4 203 -4 q 122 0 143 -4 l 122 1013 l 131 1021 l 168 1021 q 213 1005 201 1021 q 224 951 224 989 l 224 593 q 335 665 271 638 q 463 693 399 693 q 598 633 556 693 q 640 475 640 572 z "},"i":{"ha":356,"x_min":58,"x_max":236,"o":"m 236 586 l 236 0 q 185 -4 215 -4 q 133 0 154 -4 l 133 536 q 121 589 133 575 q 76 603 108 603 l 64 603 q 58 640 58 618 q 64 679 58 663 q 107 684 90 682 q 133 686 124 686 l 144 686 q 212 659 188 686 q 236 586 236 632 m 100 919 q 164 933 122 933 q 219 921 204 933 q 235 868 235 908 q 218 815 235 828 q 164 801 201 801 q 110 812 131 801 q 90 868 90 822 q 100 919 90 900 z "},"j":{"ha":365,"x_min":49,"x_max":246,"o":"m 246 586 l 246 -24 q 244 -103 246 -62 q 228 -182 243 -144 q 180 -251 214 -219 q 81 -304 146 -283 q 49 -239 57 -281 q 94 -209 76 -225 q 124 -174 113 -193 q 139 -128 135 -154 q 143 -67 143 -103 l 143 536 q 131 589 143 575 q 86 603 118 603 l 61 603 q 56 640 56 626 q 61 679 56 653 q 108 684 88 682 q 146 686 129 686 l 157 686 q 222 659 199 686 q 246 586 246 632 m 110 919 q 174 933 132 933 q 229 921 214 933 q 244 868 244 908 q 228 815 244 828 q 174 801 211 801 q 120 812 140 801 q 100 868 100 822 q 110 919 100 900 z "},"k":{"ha":681,"x_min":122,"x_max":650,"o":"m 529 249 l 583 126 q 650 22 619 44 q 589 -8 628 -8 q 534 8 550 -8 q 501 64 518 25 l 438 208 q 383 290 411 269 q 310 311 356 311 q 224 306 264 311 l 224 0 q 173 -4 203 -4 q 122 0 143 -4 l 122 1013 l 131 1021 l 168 1021 q 213 1005 201 1021 q 224 951 224 989 l 224 393 l 283 396 q 315 415 303 396 l 464 635 q 497 674 482 663 q 533 686 513 686 q 593 683 554 686 l 601 672 l 425 415 q 392 376 407 389 q 471 337 439 367 q 529 249 503 307 z "},"l":{"ha":393,"x_min":119,"x_max":340,"o":"m 272 79 l 331 79 q 338 51 336 67 q 340 24 340 36 q 340 10 340 15 q 339 3 339 6 q 296 -4 317 -1 q 254 -7 275 -7 q 158 19 197 -7 q 119 110 119 44 l 119 1013 l 128 1021 l 165 1021 q 210 1005 199 1021 q 221 951 221 989 l 221 139 q 272 79 221 79 z "},"m":{"ha":1099,"x_min":122,"x_max":1000,"o":"m 501 444 q 480 564 501 528 q 410 600 458 600 q 312 571 363 600 q 225 492 261 542 l 225 0 q 174 -4 204 -4 q 122 0 143 -4 l 122 676 l 131 686 l 169 686 q 214 669 203 686 q 225 614 225 651 l 225 593 q 428 693 313 693 q 585 589 543 693 q 810 693 699 693 q 940 634 897 693 q 983 479 983 575 l 983 132 q 1000 14 983 53 q 935 -8 976 -8 q 882 60 882 -8 l 882 446 q 860 565 882 529 q 790 600 839 600 q 693 572 743 600 q 604 494 643 544 l 604 0 q 553 -4 583 -4 q 501 0 522 -4 l 501 444 z "},"n":{"ha":757,"x_min":122,"x_max":658,"o":"m 643 476 l 643 132 q 658 14 643 53 q 593 -8 636 -8 q 540 60 540 -8 l 540 444 q 519 565 540 529 q 440 600 499 600 q 325 570 385 600 q 225 493 265 540 l 225 0 q 174 -4 204 -4 q 122 0 143 -4 l 122 678 l 131 686 l 169 686 q 214 669 203 686 q 225 614 225 651 l 225 594 q 336 666 272 639 q 464 693 400 693 q 600 633 557 693 q 643 476 643 574 z "},"o":{"ha":721,"x_min":72,"x_max":649,"o":"m 551 57 q 360 -17 478 -17 q 237 10 290 -17 q 147 83 183 36 q 91 195 110 129 q 72 340 72 261 q 91 485 72 419 q 147 599 110 551 q 237 672 183 646 q 360 699 290 699 q 483 672 429 699 q 573 599 536 646 q 629 485 610 551 q 649 340 649 419 q 551 57 649 154 m 361 64 q 497 140 450 64 q 543 340 543 215 q 533 447 543 396 q 500 535 522 497 q 443 596 478 574 q 360 618 408 618 q 278 597 313 618 q 222 538 244 575 q 190 449 200 500 q 179 340 179 399 q 190 232 179 282 q 222 144 200 182 q 278 85 243 107 q 361 64 313 64 z "},"p":{"ha":731,"x_min":122,"x_max":660,"o":"m 224 46 l 224 -229 q 213 -283 224 -267 q 168 -299 201 -299 l 131 -299 l 122 -290 l 122 678 l 131 686 l 167 686 q 212 669 200 686 q 224 613 224 651 l 224 606 q 422 699 307 699 q 600 603 540 699 q 660 340 660 508 q 638 193 660 258 q 581 83 617 128 q 500 13 546 38 q 406 -11 454 -11 q 224 46 310 -11 m 224 497 l 224 140 q 383 78 308 78 q 507 144 458 78 q 556 346 556 211 q 544 462 556 413 q 513 544 532 511 q 467 592 493 576 q 413 608 442 608 q 307 579 357 608 q 224 497 257 550 z "},"q":{"ha":728,"x_min":71,"x_max":644,"o":"m 506 -229 l 506 75 q 306 -11 419 -11 q 132 83 193 -11 q 71 344 71 176 q 92 495 71 429 q 150 606 114 561 q 233 675 186 651 q 333 699 281 699 q 525 626 440 699 q 599 692 549 674 q 644 638 632 672 q 606 489 606 600 l 606 -290 l 597 -299 l 560 -299 q 517 -283 528 -299 q 506 -229 506 -267 m 506 176 l 506 543 q 350 610 428 610 q 224 542 274 610 q 175 340 175 475 q 217 143 175 208 q 315 78 258 78 q 422 105 374 78 q 506 176 471 132 z "},"r":{"ha":490,"x_min":85,"x_max":479,"o":"m 85 633 q 129 692 94 669 q 229 568 207 663 q 415 690 286 690 q 479 685 444 690 q 456 588 479 625 q 407 589 439 589 q 238 463 294 589 l 238 0 q 186 -4 217 -4 q 135 0 156 -4 l 135 492 q 85 633 135 586 z "},"s":{"ha":603,"x_min":51,"x_max":543,"o":"m 51 53 q 92 128 53 96 q 203 78 154 92 q 293 64 253 64 q 353 73 328 64 q 397 97 379 82 q 425 129 415 111 q 436 165 435 147 q 410 235 436 207 q 335 283 385 264 l 257 314 q 124 395 168 349 q 79 507 79 442 q 97 585 79 550 q 147 646 115 621 q 222 685 179 671 q 317 699 265 699 q 522 653 419 699 q 490 572 522 604 q 394 606 438 596 q 314 615 350 615 q 217 586 250 615 q 185 519 185 557 q 210 456 185 479 q 289 413 235 433 l 371 381 q 543 179 543 313 q 472 35 543 86 q 281 -17 401 -17 q 51 53 163 -17 z "},"t":{"ha":468,"x_min":44,"x_max":428,"o":"m 424 682 q 428 642 428 661 q 424 603 428 624 l 247 604 l 247 138 q 301 79 247 79 l 407 79 q 417 32 417 56 q 414 3 417 8 q 282 -6 350 -6 q 147 110 147 -6 l 147 604 l 49 603 q 44 642 44 624 q 49 682 44 661 l 147 681 l 147 826 q 158 880 147 864 q 201 896 169 896 l 239 896 l 247 888 l 247 679 l 424 682 z "},"u":{"ha":758,"x_min":99,"x_max":674,"o":"m 115 204 l 115 550 q 99 668 115 624 q 164 690 122 690 q 217 622 217 690 l 217 238 q 239 115 217 150 q 317 81 261 81 q 432 110 372 81 q 532 188 492 140 l 532 681 q 554 685 540 683 q 583 686 568 686 q 612 685 599 686 q 635 681 625 683 l 635 192 q 674 43 635 81 q 626 -10 661 4 q 539 93 558 13 q 426 17 492 46 q 293 -12 360 -12 q 158 47 200 -12 q 115 204 115 107 z "},"v":{"ha":614,"x_min":15,"x_max":600,"o":"m 318 89 l 504 682 q 545 688 526 688 q 597 679 564 688 l 600 675 q 372 0 472 278 q 306 -7 344 -7 q 252 5 267 -7 q 222 60 238 17 l 15 674 q 78 692 51 692 q 129 651 118 692 l 240 321 q 306 100 282 190 q 318 89 308 89 z "},"w":{"ha":978,"x_min":44,"x_max":939,"o":"m 194 60 l 44 675 q 108 692 82 692 q 156 650 147 692 l 229 328 q 279 89 249 242 q 290 76 282 76 l 431 681 q 493 685 451 685 q 556 681 535 685 l 688 89 q 699 76 690 76 q 756 328 725 200 l 839 682 q 886 688 856 688 q 936 679 917 688 l 939 675 l 767 -1 q 695 -6 738 -6 q 634 7 653 -6 q 607 60 615 19 l 558 276 q 531 410 553 299 q 494 581 508 522 l 489 581 q 422 278 482 543 l 356 0 q 282 -6 324 -6 q 222 7 240 -6 q 194 60 204 19 z "},"x":{"ha":624,"x_min":31,"x_max":593,"o":"m 464 681 q 506 688 478 688 q 535 685 521 688 q 558 678 549 683 l 563 669 l 367 361 l 593 15 q 524 -10 556 -10 q 469 21 490 -10 l 304 276 l 131 -1 q 113 -6 124 -4 q 89 -7 103 -7 q 60 -5 74 -7 q 35 3 46 -3 l 31 11 l 251 357 l 50 668 q 117 693 85 693 q 172 661 153 693 l 315 440 l 464 681 z "},"y":{"ha":628,"x_min":7,"x_max":606,"o":"m 606 675 l 415 24 q 303 -229 363 -156 q 124 -303 243 -303 q 11 -285 63 -303 q 33 -210 7 -246 q 125 -225 76 -225 q 238 -175 199 -225 q 308 -19 276 -125 l 313 -6 q 258 11 276 -3 q 226 63 239 25 l 32 674 q 93 692 75 692 q 147 643 133 692 l 257 294 q 321 78 263 278 q 335 68 324 68 l 504 682 q 552 688 522 688 q 603 679 582 688 l 606 675 z "},"z":{"ha":617,"x_min":57,"x_max":561,"o":"m 75 107 l 336 465 l 444 600 l 440 604 q 365 599 413 601 q 249 597 317 597 l 82 597 q 79 628 79 611 q 81 654 79 640 q 85 681 82 668 l 538 681 q 556 618 556 639 q 539 575 556 597 l 282 225 q 239 168 267 203 q 172 85 211 133 l 176 81 q 315 85 249 85 l 392 85 q 553 101 508 85 q 561 53 561 78 q 486 0 561 0 l 74 0 q 61 39 65 24 q 57 65 57 54 q 61 85 57 76 q 75 107 65 94 z "},"{":{"ha":442,"x_min":51,"x_max":439,"o":"m 57 486 q 137 549 106 506 q 168 656 168 592 l 168 899 q 218 1045 168 990 q 351 1114 268 1100 l 411 1124 q 428 1089 422 1111 q 428 1049 433 1067 l 368 1029 q 275 897 275 1003 l 275 658 q 244 537 275 593 q 164 456 214 481 l 164 444 q 244 363 214 419 q 275 243 275 307 l 275 1 q 368 -131 275 -101 l 428 -149 q 411 -225 439 -192 l 351 -215 q 218 -146 268 -201 q 168 0 168 -90 l 168 246 q 137 351 168 307 q 57 415 106 396 q 51 451 51 428 q 57 486 51 474 z "},"|":{"ha":343,"x_min":122,"x_max":221,"o":"m 122 -194 l 122 1076 q 170 1081 143 1081 q 221 1076 197 1081 l 221 -194 q 170 -199 197 -199 q 122 -194 143 -199 z "},"}":{"ha":442,"x_min":3,"x_max":389,"o":"m 383 486 q 389 451 389 474 q 383 415 389 428 q 303 351 335 396 q 272 246 272 307 l 272 0 q 222 -146 272 -90 q 89 -215 172 -201 l 31 -225 q 13 -149 3 -194 l 74 -131 q 167 1 167 -101 l 167 243 q 197 363 167 307 q 278 444 228 419 l 278 456 q 197 537 228 481 q 167 658 167 593 l 167 897 q 74 1029 167 1003 l 13 1049 q 31 1124 3 1096 l 89 1114 q 222 1045 172 1100 q 272 899 272 990 l 272 656 q 303 549 272 592 q 383 486 335 506 z "},"~":{"ha":778,"x_min":61,"x_max":717,"o":"m 363 472 l 469 424 q 546 406 513 406 q 635 456 596 406 l 656 482 q 692 470 674 481 q 717 443 710 460 l 703 418 q 529 307 646 307 q 415 335 475 307 l 308 383 q 226 400 271 400 q 144 351 182 400 l 122 325 q 86 337 104 326 q 61 364 68 347 l 75 389 q 249 500 132 500 q 363 472 303 500 z "},"¡":{"ha":385,"x_min":117,"x_max":268,"o":"m 235 422 l 244 -246 q 133 -276 201 -276 l 125 -268 l 151 422 q 171 426 160 425 q 193 428 182 428 q 215 426 204 428 q 235 422 226 425 m 258 565 q 228 555 246 558 q 192 551 211 551 q 161 552 175 551 q 138 559 147 553 q 122 580 128 565 q 117 621 117 594 q 136 681 117 671 q 192 692 156 692 q 250 681 232 692 q 268 621 268 671 q 258 565 268 581 z "},"¢":{"ha":654,"x_min":71,"x_max":592,"o":"m 300 -42 l 300 97 q 198 136 240 106 q 127 215 156 167 q 85 325 99 263 q 71 460 71 388 q 88 593 71 533 q 136 698 106 653 q 210 771 167 743 q 304 807 253 799 l 304 944 q 349 949 321 949 q 397 944 376 949 l 397 808 q 483 781 446 801 q 543 733 519 761 q 579 674 567 706 q 592 611 592 642 q 536 549 592 549 q 493 553 515 549 l 493 568 q 485 630 493 601 q 458 681 476 658 q 413 715 440 703 q 349 728 386 728 q 226 656 269 728 q 182 449 182 583 q 357 185 182 185 q 532 264 444 185 q 565 238 549 256 q 586 204 581 221 q 393 97 510 115 l 393 -42 q 368 -44 381 -44 q 344 -44 356 -44 q 322 -44 333 -44 q 300 -42 311 -44 z "},"£":{"ha":728,"x_min":81,"x_max":668,"o":"m 296 382 l 297 354 q 196 90 297 233 l 200 86 q 322 90 281 89 q 364 92 363 92 l 668 92 q 653 22 668 44 q 597 0 639 0 l 99 0 q 82 75 82 50 q 86 101 81 90 q 99 124 92 113 l 124 163 q 176 263 156 215 q 194 357 197 311 l 193 382 q 149 381 175 381 q 88 381 122 381 q 83 419 83 399 q 88 465 83 440 q 137 465 115 465 q 172 464 158 465 q 134 569 156 515 q 113 675 113 622 q 130 766 113 722 q 181 843 147 810 q 263 897 214 876 q 375 917 311 917 q 639 819 529 917 q 621 774 638 797 q 583 744 604 751 q 483 805 538 783 q 369 826 428 826 q 315 816 342 826 q 267 785 289 806 q 233 737 246 765 q 219 672 219 708 q 228 613 219 647 q 246 548 236 579 q 265 493 256 517 q 276 464 274 469 l 542 465 q 546 444 544 454 q 547 422 547 433 q 546 401 547 411 q 542 381 544 392 l 296 382 z "},"¤":{"ha":786,"x_min":51,"x_max":735,"o":"m 151 638 l 51 744 q 113 806 75 785 l 219 706 q 390 758 296 758 q 564 707 488 758 l 672 807 q 733 746 715 783 l 633 639 q 674 553 661 599 q 688 464 688 508 q 635 293 688 369 l 735 186 q 674 125 717 151 l 567 225 q 393 172 489 172 q 219 225 297 172 l 113 125 q 78 151 93 136 q 51 186 63 167 l 151 293 q 111 375 124 331 q 99 465 99 419 q 111 555 99 511 q 151 638 124 599 m 393 678 q 317 661 351 678 q 259 616 283 644 q 221 549 235 588 q 207 465 207 510 q 220 384 207 422 q 258 317 233 346 q 316 271 282 288 q 393 254 350 254 q 469 271 435 254 q 528 317 504 288 q 566 384 553 346 q 579 465 579 422 q 565 549 579 510 q 527 616 551 588 q 469 661 503 644 q 393 678 435 678 z "},"¥":{"ha":692,"x_min":40,"x_max":651,"o":"m 610 254 l 397 254 l 397 0 q 344 -4 374 -4 q 293 0 314 -4 l 293 254 l 81 254 q 75 293 75 269 q 81 332 75 315 l 288 332 l 233 454 l 81 454 q 75 493 75 469 q 81 532 75 515 l 199 532 l 40 892 q 72 907 56 901 q 104 913 89 913 q 140 902 124 913 q 167 868 156 892 l 290 567 q 313 509 299 546 q 346 419 328 472 l 353 419 q 391 522 376 486 q 408 567 406 558 l 549 904 q 599 911 576 911 q 624 910 611 911 q 647 906 636 908 l 651 897 l 490 532 l 610 532 q 614 493 614 511 q 610 454 614 475 l 456 454 l 403 332 l 610 332 q 614 293 614 311 q 610 254 614 275 z "},"¦":{"ha":335,"x_min":119,"x_max":217,"o":"m 119 -194 l 119 343 q 167 347 139 347 q 217 343 194 347 l 217 -194 q 167 -199 194 -199 q 119 -194 139 -199 m 119 539 l 119 1076 q 166 1081 138 1081 q 217 1076 194 1081 l 217 539 q 167 535 194 535 q 119 539 139 535 z "},"§":{"ha":663,"x_min":49,"x_max":617,"o":"m 463 211 q 561 54 561 149 q 492 -91 561 -39 q 304 -143 422 -143 q 96 -85 185 -143 q 107 -42 96 -65 q 133 -7 118 -19 q 308 -60 235 -60 q 419 -33 383 -60 q 456 42 456 -6 q 351 149 456 107 l 269 181 q 108 272 167 221 q 49 396 49 322 q 91 524 49 471 q 200 611 133 578 q 103 768 103 675 q 122 852 103 815 q 172 914 140 889 q 248 952 204 939 q 342 965 292 965 q 546 918 447 965 q 514 838 546 869 q 338 882 411 882 q 242 853 274 882 q 210 781 210 824 q 314 674 210 715 l 394 642 q 558 551 499 600 q 617 426 617 501 q 574 298 617 351 q 463 211 531 244 m 358 542 l 281 569 q 156 418 156 511 q 195 340 156 369 q 306 282 235 310 l 381 251 q 510 404 510 311 q 469 483 510 453 q 358 542 429 514 z "},"¨":{"ha":553,"x_min":89,"x_max":464,"o":"m 344 889 q 400 901 365 901 q 453 884 443 901 q 464 840 464 867 q 453 797 464 813 q 400 782 442 782 q 363 787 376 782 q 344 800 350 792 q 336 819 338 808 q 335 842 335 829 q 344 889 335 865 m 99 889 q 123 899 108 896 q 153 901 138 901 q 208 889 185 901 q 215 864 213 876 q 218 840 218 851 q 206 797 218 811 q 153 782 194 782 q 117 787 129 782 q 98 800 104 792 q 90 819 92 808 q 89 842 89 831 q 99 889 89 865 z "},"©":{"ha":1125,"x_min":63,"x_max":1063,"o":"m 206 118 q 63 474 63 261 q 101 669 63 578 q 206 828 139 761 q 365 935 274 896 q 561 974 456 974 q 757 935 665 974 q 917 828 849 896 q 1024 669 985 760 q 1063 474 1063 578 q 1024 278 1063 369 q 917 120 985 188 q 758 14 849 53 q 561 -25 667 -25 q 206 118 349 -25 m 275 771 q 160 474 160 647 q 190 311 160 388 q 275 178 221 235 q 402 88 329 121 q 561 54 475 54 q 722 88 647 54 q 850 178 796 121 q 935 312 904 236 q 965 474 965 388 q 934 635 965 558 q 849 769 903 713 q 721 860 794 826 q 561 894 647 894 q 275 771 390 894 m 682 540 l 682 553 q 653 640 682 601 q 561 678 624 678 q 459 626 497 678 q 421 475 421 575 q 460 325 421 376 q 575 274 499 274 q 721 336 651 274 q 767 282 751 321 q 673 219 729 243 q 558 194 617 194 q 385 271 449 194 q 321 478 321 347 q 341 596 321 544 q 394 683 361 647 q 472 737 428 718 q 565 756 517 756 q 653 740 615 756 q 718 701 692 725 q 758 647 744 676 q 772 590 772 618 q 724 533 772 533 q 682 540 703 533 z "},"ª":{"ha":564,"x_min":56,"x_max":494,"o":"m 494 472 q 451 426 486 444 q 383 496 397 446 q 219 422 301 422 q 97 469 139 422 q 56 578 56 515 q 110 707 56 665 q 260 749 164 749 q 315 747 286 749 q 376 742 344 744 l 376 783 q 286 886 376 886 q 106 844 199 886 q 74 915 74 874 q 292 965 192 965 q 463 788 463 965 l 463 576 q 494 472 463 504 m 228 496 q 376 574 307 496 l 376 672 q 318 678 344 675 q 269 681 292 681 q 180 655 211 681 q 149 585 149 629 q 169 523 149 550 q 221 496 189 496 l 228 496 z "},"«":{"ha":731,"x_min":47,"x_max":676,"o":"m 668 586 l 464 356 l 676 117 q 617 60 660 76 l 344 318 q 344 390 332 354 l 608 643 q 668 586 651 626 m 383 586 l 179 356 l 392 117 q 332 60 375 76 l 60 318 q 60 390 47 354 l 324 643 q 383 586 367 626 z "},"¬":{"ha":736,"x_min":69,"x_max":653,"o":"m 551 365 l 499 364 l 75 364 q 69 410 69 381 q 75 460 69 439 l 643 460 l 653 451 l 653 153 q 602 149 632 149 q 550 153 572 149 l 550 313 l 551 365 z "},"­":{"ha":465,"x_min":68,"x_max":397,"o":"m 393 321 l 74 321 q 68 367 68 338 q 74 417 68 396 l 393 417 q 397 367 397 394 q 393 321 397 339 z "},"®":{"ha":817,"x_min":53,"x_max":763,"o":"m 156 425 q 53 676 53 528 q 81 815 53 750 q 156 928 108 881 q 269 1004 204 976 q 407 1032 333 1032 q 545 1004 481 1032 q 658 928 610 976 q 735 815 707 879 q 763 676 763 750 q 735 538 763 603 q 659 426 707 474 q 546 350 611 378 q 407 322 481 322 q 156 425 258 322 m 211 876 q 132 676 132 794 q 153 567 132 618 q 212 477 175 515 q 299 417 249 439 q 407 394 349 394 q 516 417 465 394 q 604 477 567 439 q 663 567 642 515 q 685 676 685 618 q 663 786 685 735 q 604 876 642 838 q 516 938 567 915 q 407 960 465 960 q 211 876 290 960 m 544 758 q 474 660 544 682 q 519 603 492 651 l 542 564 q 571 526 556 536 q 528 499 556 499 q 474 540 497 496 l 438 608 q 393 638 422 638 l 350 638 l 350 506 q 314 500 333 500 q 278 506 293 500 l 278 849 l 282 853 q 358 855 324 854 q 421 856 393 856 q 512 828 479 856 q 544 758 544 800 m 350 799 l 350 696 l 408 696 q 471 747 471 696 q 414 799 471 799 l 350 799 z "},"¯":{"ha":553,"x_min":88,"x_max":465,"o":"m 461 803 l 92 803 q 88 848 88 822 q 92 894 88 874 l 461 894 q 465 848 465 874 q 461 803 465 822 z "},"°":{"ha":436,"x_min":28,"x_max":408,"o":"m 82 600 q 28 738 28 656 q 42 813 28 778 q 83 874 57 849 q 143 915 108 900 q 218 931 178 931 q 293 916 258 931 q 354 874 328 901 q 394 812 381 847 q 408 738 408 776 q 394 662 408 697 q 353 601 379 626 q 293 560 328 575 q 218 544 258 544 q 82 600 138 544 m 217 853 q 142 820 171 853 q 114 736 114 788 q 142 654 114 686 q 217 622 171 622 q 292 655 264 622 q 321 738 321 688 q 292 820 321 788 q 217 853 264 853 z "},"±":{"ha":736,"x_min":92,"x_max":644,"o":"m 318 510 l 317 563 l 317 736 q 369 740 339 740 q 419 736 399 740 l 419 563 q 418 510 419 563 l 469 511 l 640 511 q 644 462 644 488 q 640 417 644 436 l 469 417 l 418 418 l 419 365 l 419 189 q 369 185 399 185 q 317 189 339 185 l 317 365 l 318 418 l 267 417 l 96 417 q 92 463 92 436 q 96 511 92 489 l 267 511 l 318 510 m 640 0 l 96 0 q 92 47 92 25 q 96 96 92 69 l 640 96 q 644 47 644 69 q 640 0 644 25 z "},"²":{"ha":583,"x_min":88,"x_max":478,"o":"m 478 569 q 468 506 478 525 q 429 486 458 486 l 121 486 q 89 542 89 522 q 117 622 88 582 q 203 710 146 663 l 290 782 q 349 841 332 817 q 367 903 367 865 q 342 964 367 939 q 278 989 317 989 q 168 903 208 989 q 99 939 119 910 q 168 1033 119 997 q 290 1069 217 1069 q 358 1056 326 1069 q 413 1020 389 1043 q 449 968 436 997 q 463 907 463 939 q 456 850 463 875 q 435 803 449 825 q 399 760 421 781 q 349 715 378 739 l 271 653 q 190 564 204 599 q 238 568 214 567 q 286 569 261 569 l 478 569 z "},"³":{"ha":583,"x_min":82,"x_max":476,"o":"m 436 976 l 344 881 q 327 864 338 872 q 304 846 317 856 l 313 846 q 430 799 383 846 q 476 664 476 751 q 460 587 476 621 q 413 528 443 553 q 341 492 382 504 q 251 479 300 479 q 82 536 156 479 q 117 603 89 576 q 191 567 156 578 q 257 556 226 556 q 350 589 318 556 q 382 675 382 622 q 348 756 382 731 q 274 782 314 782 q 208 765 238 782 q 174 815 179 776 l 293 942 q 317 965 306 954 q 342 985 328 976 l 339 989 q 293 984 319 986 q 231 982 267 982 l 107 982 q 103 1021 103 1000 q 108 1060 103 1044 l 436 1060 q 451 1013 451 1033 q 436 976 451 992 z "},"´":{"ha":553,"x_min":186,"x_max":461,"o":"m 186 789 l 376 1003 q 461 925 436 985 l 235 744 q 186 789 201 753 z "},"¶":{"ha":871,"x_min":71,"x_max":831,"o":"m 407 81 l 407 361 l 376 361 q 154 438 238 361 q 71 659 71 515 q 154 878 71 803 q 376 954 238 954 q 506 950 428 954 l 514 942 l 514 94 q 502 -49 514 7 q 456 -144 490 -106 q 290 -212 396 -212 q 110 -181 185 -212 q 139 -96 110 -133 q 277 -126 208 -126 q 376 -83 346 -126 q 407 81 407 -39 m 607 -186 l 607 940 l 615 949 l 825 949 q 831 901 831 932 q 825 854 831 871 l 760 854 q 714 856 728 854 l 714 -186 q 659 -190 690 -190 q 607 -186 628 -190 z "},"·":{"ha":404,"x_min":124,"x_max":281,"o":"m 135 331 q 124 392 124 350 q 130 436 124 421 q 147 459 136 451 q 172 467 157 467 q 203 468 186 468 q 235 467 221 468 q 259 458 249 465 q 275 435 269 450 q 281 392 281 419 q 278 353 281 368 q 267 331 275 339 q 243 319 258 322 q 204 317 228 317 q 135 331 158 317 z "},"¸":{"ha":553,"x_min":167,"x_max":422,"o":"m 210 -100 q 246 0 224 -47 l 324 0 q 310 -29 317 -15 q 300 -56 304 -43 q 388 -92 353 -60 q 422 -178 422 -124 q 378 -269 422 -233 q 271 -304 335 -304 q 167 -278 206 -304 q 192 -217 168 -249 q 261 -236 224 -236 q 315 -219 299 -236 q 332 -175 332 -201 q 310 -129 332 -143 q 265 -115 289 -115 q 231 -122 247 -115 q 210 -100 217 -117 z "},"¹":{"ha":583,"x_min":103,"x_max":485,"o":"m 211 567 l 275 565 l 275 844 q 278 918 275 865 q 140 817 232 857 q 103 876 107 835 q 279 1060 228 949 q 321 1065 300 1065 q 365 1060 342 1065 l 365 565 l 431 567 l 481 567 q 485 530 485 550 q 481 489 485 510 l 132 489 q 128 531 128 511 q 132 567 128 550 l 211 567 z "},"º":{"ha":540,"x_min":44,"x_max":494,"o":"m 419 911 q 494 693 494 829 q 481 587 494 636 q 439 501 467 538 q 369 444 411 465 q 269 422 326 422 q 170 444 213 422 q 100 501 128 465 q 58 587 72 538 q 44 693 44 636 q 58 799 44 750 q 100 885 72 849 q 170 944 128 922 q 269 965 213 965 q 419 911 361 965 m 171 835 q 140 694 140 779 q 147 617 140 653 q 170 555 154 581 q 210 514 186 529 q 269 499 235 499 q 328 514 304 499 q 369 556 353 529 q 392 617 385 582 q 400 694 400 653 q 392 771 400 735 q 369 834 385 807 q 328 876 353 861 q 269 892 303 892 q 171 835 203 892 z "},"»":{"ha":731,"x_min":54,"x_max":678,"o":"m 63 117 l 268 347 l 54 586 q 115 643 74 626 l 386 385 q 392 349 392 371 q 386 313 392 326 l 124 60 q 63 117 82 76 m 347 117 l 553 347 l 339 586 q 400 643 358 626 l 671 385 q 678 349 678 371 q 671 313 678 328 l 408 60 q 347 117 367 76 z "},"¼":{"ha":1231,"x_min":58,"x_max":1169,"o":"m 167 457 l 231 456 l 231 735 q 233 808 231 756 q 96 707 188 747 q 58 767 63 725 q 235 950 183 839 q 276 956 256 956 q 321 950 297 956 l 321 456 l 386 457 l 436 457 q 440 420 440 440 q 436 379 440 400 l 88 379 q 83 421 83 401 q 88 457 83 440 l 167 457 m 354 0 l 878 949 q 929 956 894 956 q 981 949 964 956 l 458 0 q 406 -7 440 -7 q 354 0 371 -7 m 986 1 l 986 115 l 764 115 q 743 169 743 149 q 764 231 743 189 l 929 578 q 976 575 950 581 q 1014 557 1003 569 l 890 289 q 840 197 858 222 l 842 194 q 922 196 872 196 l 986 196 l 986 296 q 1001 342 986 325 q 1042 358 1017 358 l 1072 358 l 1074 356 l 1074 196 l 1165 196 q 1169 156 1169 181 q 1161 115 1169 132 l 1074 115 l 1074 1 q 1032 -4 1061 -4 q 986 1 1003 -4 z "},"½":{"ha":1231,"x_min":58,"x_max":1160,"o":"m 167 457 l 231 456 l 231 735 q 233 808 231 756 q 96 707 188 747 q 58 767 63 725 q 235 950 183 839 q 276 956 256 956 q 321 950 297 956 l 321 456 l 386 457 l 436 457 q 440 420 440 440 q 436 379 440 400 l 88 379 q 83 421 83 401 q 88 457 83 440 l 167 457 m 331 0 l 854 949 q 906 956 871 956 q 957 949 940 956 l 435 0 q 382 -7 417 -7 q 331 0 347 -7 m 1160 82 q 1150 18 1160 38 q 1111 -1 1140 -1 l 803 -1 q 771 54 771 35 q 799 135 769 94 q 885 222 828 175 l 972 294 q 1031 353 1014 329 q 1049 415 1049 378 q 1024 476 1049 451 q 960 501 999 501 q 850 415 890 501 q 781 451 801 422 q 850 546 801 510 q 972 582 899 582 q 1040 569 1008 582 q 1094 533 1071 556 q 1131 481 1118 510 q 1144 419 1144 451 q 1138 363 1144 388 q 1117 315 1131 338 q 1081 272 1103 293 q 1031 228 1060 251 l 953 165 q 872 76 886 111 q 919 81 896 79 q 968 82 943 82 l 1160 82 z "},"¾":{"ha":1231,"x_min":78,"x_max":1176,"o":"m 432 867 l 340 771 q 323 754 333 763 q 300 736 313 746 l 308 736 q 426 689 379 736 q 472 554 472 642 q 456 477 472 511 q 408 419 439 443 q 337 382 378 394 q 247 369 296 369 q 78 426 151 369 q 113 493 85 467 q 187 457 151 468 q 253 446 222 446 q 346 479 314 446 q 378 565 378 513 q 344 647 378 621 q 269 672 310 672 q 204 656 233 672 q 169 706 175 667 l 289 832 q 313 856 301 844 q 338 875 324 867 l 335 879 q 289 874 315 876 q 226 872 263 872 l 103 872 q 99 911 99 890 q 104 950 99 935 l 432 950 q 447 903 447 924 q 432 867 447 882 m 343 0 l 867 949 q 918 956 883 956 q 969 949 953 956 l 447 0 q 394 -7 429 -7 q 343 0 360 -7 m 993 1 l 993 115 l 771 115 q 750 169 750 149 q 771 231 750 189 l 936 578 q 983 575 957 581 q 1021 557 1010 569 l 897 289 q 847 197 865 222 l 849 194 q 929 196 879 196 l 993 196 l 993 296 q 1008 342 993 325 q 1049 358 1024 358 l 1079 358 l 1081 356 l 1081 196 l 1172 196 q 1176 156 1176 181 q 1168 115 1176 132 l 1081 115 l 1081 1 q 1039 -4 1068 -4 q 993 1 1010 -4 z "},"¿":{"ha":531,"x_min":13,"x_max":508,"o":"m 508 -218 q 267 -283 385 -283 q 81 -222 149 -283 q 14 -56 14 -160 q 58 92 13 28 q 194 210 103 157 l 283 261 l 293 422 q 312 426 301 425 q 333 428 322 428 q 356 426 344 428 q 375 422 367 425 l 381 215 l 371 203 l 308 169 q 126 -46 126 71 q 166 -149 126 -110 q 281 -189 206 -189 q 471 -136 361 -189 q 508 -218 504 -169 m 397 565 q 368 555 385 558 q 332 551 351 551 q 301 552 315 551 q 278 559 288 553 q 263 580 268 565 q 257 621 257 594 q 276 681 257 671 q 332 692 294 692 q 389 681 369 692 q 408 621 408 671 q 397 565 408 581 z "},"À":{"ha":828,"x_min":36,"x_max":792,"o":"m 599 247 l 501 246 l 315 246 l 218 247 l 138 -1 q 93 -6 119 -6 q 39 1 67 -6 l 36 6 l 354 949 q 417 953 378 953 q 474 949 456 953 l 792 6 q 736 -8 769 -8 q 689 3 703 -8 q 665 47 675 14 l 599 247 m 249 338 l 329 339 l 489 339 q 523 338 490 339 q 569 338 556 338 l 482 601 q 411 833 429 764 l 404 833 q 357 668 378 731 l 249 338 m 292 1225 l 557 1071 q 524 1013 549 1029 l 239 1132 q 292 1225 249 1199 z "},"Á":{"ha":828,"x_min":36,"x_max":792,"o":"m 599 247 l 501 246 l 315 246 l 218 247 l 138 -1 q 93 -6 119 -6 q 39 1 67 -6 l 36 6 l 354 949 q 417 953 378 953 q 474 949 456 953 l 792 6 q 736 -8 769 -8 q 689 3 703 -8 q 665 47 675 14 l 599 247 m 249 338 l 329 339 l 489 339 q 523 338 490 339 q 569 338 556 338 l 482 601 q 411 833 429 764 l 404 833 q 357 668 378 731 l 249 338 m 292 1071 l 557 1225 q 610 1132 597 1200 l 325 1013 q 292 1071 297 1032 z "},"Â":{"ha":828,"x_min":36,"x_max":792,"o":"m 599 247 l 501 246 l 315 246 l 218 247 l 138 -1 q 93 -6 119 -6 q 39 1 67 -6 l 36 6 l 354 949 q 417 953 378 953 q 474 949 456 953 l 792 6 q 736 -8 769 -8 q 689 3 703 -8 q 665 47 675 14 l 599 247 m 249 338 l 329 339 l 489 339 q 523 338 490 339 q 569 338 556 338 l 482 601 q 411 833 429 764 l 404 833 q 357 668 378 731 l 249 338 m 565 1025 l 414 1129 l 257 1017 q 210 1067 218 1033 l 364 1217 q 463 1217 413 1225 l 617 1074 q 565 1025 604 1036 z "},"Ã":{"ha":828,"x_min":36,"x_max":792,"o":"m 599 247 l 501 246 l 315 246 l 218 247 l 138 -1 q 93 -6 119 -6 q 39 1 67 -6 l 36 6 l 354 949 q 417 953 378 953 q 474 949 456 953 l 792 6 q 736 -8 769 -8 q 689 3 703 -8 q 665 47 675 14 l 599 247 m 249 338 l 329 339 l 489 339 q 523 338 490 339 q 569 338 556 338 l 482 601 q 411 833 429 764 l 404 833 q 357 668 378 731 l 249 338 m 438 1049 l 353 1089 q 329 1098 340 1094 q 307 1101 318 1101 q 278 1093 293 1100 q 247 1067 263 1086 l 231 1044 q 178 1076 193 1047 l 189 1104 q 242 1171 207 1149 q 317 1193 278 1193 q 353 1189 335 1194 q 390 1175 371 1183 l 475 1135 q 497 1126 486 1129 q 519 1122 508 1122 q 549 1129 533 1122 q 581 1157 565 1136 l 597 1179 q 650 1144 631 1178 l 639 1118 q 587 1051 619 1074 q 513 1029 554 1029 q 438 1049 479 1029 z "},"Ä":{"ha":828,"x_min":36,"x_max":792,"o":"m 599 247 l 501 246 l 315 246 l 218 247 l 138 -1 q 93 -6 119 -6 q 39 1 67 -6 l 36 6 l 354 949 q 417 953 378 953 q 474 949 456 953 l 792 6 q 736 -8 769 -8 q 689 3 703 -8 q 665 47 675 14 l 599 247 m 249 338 l 329 339 l 489 339 q 523 338 490 339 q 569 338 556 338 l 482 601 q 411 833 429 764 l 404 833 q 357 668 378 731 l 249 338 m 494 1136 q 518 1144 503 1142 q 550 1147 533 1147 q 610 1136 585 1147 q 618 1085 618 1108 q 617 1061 618 1072 q 611 1042 617 1050 q 591 1028 606 1033 q 550 1024 576 1024 q 510 1029 524 1024 q 491 1043 497 1035 q 484 1063 485 1051 q 483 1085 483 1074 q 494 1136 483 1114 m 218 1136 q 245 1144 229 1142 q 278 1147 261 1147 q 315 1142 301 1147 q 334 1129 328 1138 q 342 1109 340 1121 q 343 1085 343 1097 q 343 1063 343 1074 q 337 1043 343 1051 q 317 1029 331 1035 q 276 1024 303 1024 q 235 1029 249 1024 q 216 1043 222 1035 q 210 1063 210 1051 q 210 1085 210 1074 q 218 1136 210 1107 z "},"Å":{"ha":828,"x_min":36,"x_max":792,"o":"m 599 247 l 315 246 l 218 247 l 138 -1 q 96 -6 121 -6 q 68 -4 82 -6 q 36 6 54 -3 l 353 943 q 287 997 311 961 q 263 1086 263 1033 q 274 1138 263 1113 q 306 1182 286 1163 q 354 1213 326 1201 q 414 1225 382 1225 q 474 1213 446 1225 q 522 1181 501 1201 q 555 1136 543 1161 q 567 1086 567 1111 q 542 997 567 1033 q 475 943 517 960 l 792 6 q 736 -8 769 -8 q 689 3 703 -8 q 665 47 675 14 l 599 247 m 249 338 l 489 339 l 569 338 l 482 601 q 438 741 454 683 q 411 833 421 799 l 404 833 q 379 741 390 782 q 357 668 368 700 l 249 338 m 414 1157 q 363 1135 383 1157 q 343 1078 343 1113 q 363 1022 343 1044 q 414 1000 383 1000 q 465 1022 444 1000 q 485 1078 485 1044 q 465 1135 485 1113 q 414 1157 444 1157 z "},"Æ":{"ha":1210,"x_min":29,"x_max":1133,"o":"m 565 247 l 475 246 l 350 246 l 265 247 l 139 -1 q 88 -6 117 -6 q 39 1 60 -6 l 29 6 l 510 938 q 574 949 533 949 l 1111 949 q 1114 904 1114 932 q 1106 857 1114 876 l 668 857 l 669 771 l 669 525 l 751 526 l 1039 526 q 1043 480 1043 501 q 1039 435 1043 458 l 751 435 q 669 436 699 435 l 669 143 l 668 90 q 753 93 718 93 l 1133 93 q 1131 49 1133 64 q 1063 0 1122 0 l 626 0 q 582 19 599 0 q 565 69 565 38 l 565 247 m 476 339 l 565 338 l 565 833 l 557 833 q 481 668 547 810 l 311 338 l 376 339 l 476 339 z "},"Ç":{"ha":833,"x_min":79,"x_max":768,"o":"m 369 -100 q 399 -15 383 -50 q 253 31 315 -10 q 155 138 192 72 q 99 290 118 204 q 79 469 79 375 q 107 686 79 593 q 183 841 135 779 q 297 934 232 903 q 438 965 363 965 q 574 943 513 965 q 678 885 635 921 q 744 801 721 849 q 768 704 768 754 q 708 642 768 642 q 697 642 704 642 q 681 644 689 643 q 667 649 672 646 q 661 656 661 651 q 649 737 661 697 q 609 808 636 776 q 540 858 582 839 q 439 876 497 876 q 256 772 321 876 q 192 476 192 668 q 258 180 192 283 q 447 76 325 76 q 697 186 571 76 q 756 117 740 161 q 478 -14 646 4 q 467 -37 471 -26 q 460 -56 463 -47 q 549 -92 514 -60 q 583 -178 583 -124 q 572 -228 583 -206 q 539 -268 560 -251 q 490 -294 518 -285 q 431 -304 463 -304 q 326 -278 365 -304 q 353 -217 329 -244 q 419 -236 383 -236 q 476 -219 458 -236 q 493 -175 493 -201 q 472 -129 493 -143 q 426 -115 450 -115 q 392 -122 408 -115 q 369 -100 376 -117 z "},"È":{"ha":782,"x_min":138,"x_max":706,"o":"m 240 143 l 239 90 q 325 93 286 93 l 706 93 q 703 49 706 64 q 635 0 693 0 l 197 0 q 153 19 169 0 q 138 69 138 38 l 138 940 l 146 949 l 682 949 q 685 905 685 932 q 678 857 685 878 l 239 857 l 240 771 l 240 525 l 324 526 l 611 526 q 615 480 615 501 q 611 435 615 458 l 324 435 q 240 436 271 435 l 240 143 m 293 1225 l 558 1071 q 525 1013 550 1029 l 240 1132 q 293 1225 250 1199 z "},"É":{"ha":782,"x_min":138,"x_max":706,"o":"m 240 143 l 239 90 q 325 93 286 93 l 706 93 q 703 49 706 64 q 635 0 693 0 l 197 0 q 153 19 169 0 q 138 69 138 38 l 138 940 l 146 949 l 682 949 q 685 905 685 932 q 678 857 685 878 l 239 857 l 240 771 l 240 525 l 324 526 l 611 526 q 615 480 615 501 q 611 435 615 458 l 324 435 q 240 436 271 435 l 240 143 m 293 1071 l 558 1225 q 611 1132 599 1200 l 326 1013 q 293 1071 299 1032 z "},"Ê":{"ha":782,"x_min":138,"x_max":706,"o":"m 240 143 l 239 90 q 325 93 286 93 l 706 93 q 703 49 706 64 q 635 0 693 0 l 197 0 q 153 19 169 0 q 138 69 138 38 l 138 940 l 146 949 l 682 949 q 685 905 685 932 q 678 857 685 878 l 239 857 l 240 771 l 240 525 l 324 526 l 611 526 q 615 480 615 501 q 611 435 615 458 l 324 435 q 240 436 271 435 l 240 143 m 567 1025 l 415 1129 l 258 1017 q 211 1067 219 1033 l 365 1217 q 464 1217 414 1225 l 618 1074 q 567 1025 606 1036 z "},"Ë":{"ha":782,"x_min":138,"x_max":706,"o":"m 240 143 l 239 90 q 325 93 286 93 l 706 93 q 703 49 706 64 q 635 0 693 0 l 197 0 q 153 19 169 0 q 138 69 138 38 l 138 940 l 146 949 l 682 949 q 685 905 685 932 q 678 857 685 878 l 239 857 l 240 771 l 240 525 l 324 526 l 611 526 q 615 480 615 501 q 611 435 615 458 l 324 435 q 240 436 271 435 l 240 143 m 496 1136 q 519 1144 504 1142 q 551 1147 535 1147 q 611 1136 586 1147 q 619 1085 619 1108 q 619 1061 619 1072 q 613 1042 618 1050 q 592 1028 607 1033 q 551 1024 578 1024 q 512 1029 525 1024 q 492 1043 499 1035 q 485 1063 486 1051 q 485 1085 485 1074 q 496 1136 485 1114 m 219 1136 q 247 1144 231 1142 q 279 1147 263 1147 q 316 1142 303 1147 q 335 1129 329 1138 q 343 1109 342 1121 q 344 1085 344 1097 q 344 1063 344 1074 q 338 1043 344 1051 q 318 1029 332 1035 q 278 1024 304 1024 q 237 1029 250 1024 q 217 1043 224 1035 q 211 1063 211 1051 q 211 1085 211 1074 q 219 1136 211 1107 z "},"Ì":{"ha":392,"x_min":22,"x_max":340,"o":"m 143 0 l 143 949 q 194 953 163 953 q 249 949 225 953 l 249 0 q 194 -4 225 -4 q 143 0 163 -4 m 75 1225 l 340 1071 q 307 1013 332 1029 l 22 1132 q 75 1225 32 1199 z "},"Í":{"ha":392,"x_min":75,"x_max":393,"o":"m 143 0 l 143 949 q 194 953 163 953 q 249 949 225 953 l 249 0 q 194 -4 225 -4 q 143 0 163 -4 m 75 1071 l 340 1225 q 393 1132 381 1200 l 108 1013 q 75 1071 81 1032 z "},"Î":{"ha":392,"x_min":-7,"x_max":400,"o":"m 143 0 l 143 949 q 194 953 163 953 q 249 949 225 953 l 249 0 q 194 -4 225 -4 q 143 0 163 -4 m 349 1025 l 197 1129 l 40 1017 q -7 1067 1 1033 l 147 1217 q 246 1217 196 1225 l 400 1074 q 349 1025 388 1036 z "},"Ï":{"ha":392,"x_min":-7,"x_max":401,"o":"m 143 0 l 143 949 q 194 953 163 953 q 249 949 225 953 l 249 0 q 194 -4 225 -4 q 143 0 163 -4 m 278 1136 q 301 1144 286 1142 q 333 1147 317 1147 q 393 1136 368 1147 q 401 1085 401 1108 q 401 1061 401 1072 q 394 1042 400 1050 q 374 1028 389 1033 q 333 1024 360 1024 q 294 1029 307 1024 q 274 1043 281 1035 q 267 1063 268 1051 q 267 1085 267 1074 q 278 1136 267 1114 m 1 1136 q 28 1144 13 1142 q 61 1147 44 1147 q 98 1142 85 1147 q 117 1129 111 1138 q 125 1109 124 1121 q 126 1085 126 1097 q 126 1063 126 1074 q 120 1043 126 1051 q 100 1029 114 1035 q 60 1024 86 1024 q 19 1029 32 1024 q -1 1043 6 1035 q -7 1063 -7 1051 q -7 1085 -7 1074 q 1 1136 -7 1107 z "},"Ð":{"ha":908,"x_min":40,"x_max":826,"o":"m 683 65 q 636 35 664 49 q 577 13 608 22 q 515 -1 546 4 q 460 -6 483 -6 q 363 -4 435 -6 q 168 0 290 -3 l 160 8 l 160 435 l 44 435 q 40 479 40 456 q 44 526 40 501 l 160 526 l 160 940 l 168 949 q 450 953 289 953 q 631 915 558 953 q 747 813 703 878 q 809 660 792 747 q 826 474 826 572 q 797 235 826 335 q 683 65 768 136 m 449 864 l 265 864 l 265 526 l 501 526 q 506 479 506 501 q 501 435 506 456 l 265 435 l 265 85 l 449 83 q 582 115 529 83 q 663 200 635 146 q 702 325 690 254 q 714 475 714 396 q 649 768 714 672 q 449 864 583 864 z "},"Ñ":{"ha":932,"x_min":138,"x_max":796,"o":"m 788 953 l 796 946 l 796 0 q 731 -4 769 -4 q 664 0 692 -4 l 326 629 q 232 821 285 707 l 228 821 q 236 521 236 563 l 236 0 q 185 -4 207 -4 q 138 0 163 -4 l 138 949 q 201 953 163 953 q 267 949 239 953 l 604 319 q 701 124 638 260 l 706 124 q 696 440 696 301 l 696 883 q 707 937 696 921 q 751 953 718 953 l 788 953 m 493 1049 l 408 1089 q 385 1098 396 1094 q 363 1101 374 1101 q 333 1093 349 1100 q 303 1067 318 1086 l 286 1044 q 233 1076 249 1047 l 244 1104 q 298 1171 263 1149 q 372 1193 333 1193 q 408 1189 390 1194 q 446 1175 426 1183 l 531 1135 q 553 1126 542 1129 q 575 1122 564 1122 q 605 1129 589 1122 q 636 1157 621 1136 l 653 1179 q 706 1144 686 1178 l 694 1118 q 642 1051 675 1074 q 568 1029 610 1029 q 493 1049 535 1029 z "},"Ò":{"ha":907,"x_min":79,"x_max":828,"o":"m 203 615 q 194 547 196 582 q 192 475 192 511 q 201 342 192 413 q 239 212 211 272 q 318 112 267 151 q 453 72 369 72 q 550 92 508 72 q 621 142 592 111 q 667 215 650 174 q 695 302 685 257 q 710 392 706 347 q 714 475 714 436 q 704 607 714 536 q 666 738 694 678 q 587 837 638 797 q 453 876 536 876 q 346 853 390 876 q 273 794 301 831 q 228 710 244 757 q 203 615 213 664 m 226 64 q 79 474 79 194 q 103 674 79 583 q 175 830 128 765 q 292 930 222 894 q 453 965 363 965 q 619 926 549 965 q 737 819 690 886 q 806 663 783 751 q 828 475 828 574 q 803 274 828 365 q 732 119 779 183 q 615 19 685 54 q 453 -17 544 -17 q 226 64 315 -17 m 331 1225 l 596 1071 q 563 1013 588 1029 l 278 1132 q 331 1225 288 1199 z "},"Ó":{"ha":907,"x_min":79,"x_max":828,"o":"m 203 615 q 194 547 196 582 q 192 475 192 511 q 201 342 192 413 q 239 212 211 272 q 318 112 267 151 q 453 72 369 72 q 550 92 508 72 q 621 142 592 111 q 667 215 650 174 q 695 302 685 257 q 710 392 706 347 q 714 475 714 436 q 704 607 714 536 q 666 738 694 678 q 587 837 638 797 q 453 876 536 876 q 346 853 390 876 q 273 794 301 831 q 228 710 244 757 q 203 615 213 664 m 226 64 q 79 474 79 194 q 103 674 79 583 q 175 830 128 765 q 292 930 222 894 q 453 965 363 965 q 619 926 549 965 q 737 819 690 886 q 806 663 783 751 q 828 475 828 574 q 803 274 828 365 q 732 119 779 183 q 615 19 685 54 q 453 -17 544 -17 q 226 64 315 -17 m 331 1071 l 596 1225 q 649 1132 636 1200 l 364 1013 q 331 1071 336 1032 z "},"Ô":{"ha":907,"x_min":79,"x_max":828,"o":"m 203 615 q 194 547 196 582 q 192 475 192 511 q 201 342 192 413 q 239 212 211 272 q 318 112 267 151 q 453 72 369 72 q 550 92 508 72 q 621 142 592 111 q 667 215 650 174 q 695 302 685 257 q 710 392 706 347 q 714 475 714 436 q 704 607 714 536 q 666 738 694 678 q 587 837 638 797 q 453 876 536 876 q 346 853 390 876 q 273 794 301 831 q 228 710 244 757 q 203 615 213 664 m 226 64 q 79 474 79 194 q 103 674 79 583 q 175 830 128 765 q 292 930 222 894 q 453 965 363 965 q 619 926 549 965 q 737 819 690 886 q 806 663 783 751 q 828 475 828 574 q 803 274 828 365 q 732 119 779 183 q 615 19 685 54 q 453 -17 544 -17 q 226 64 315 -17 m 604 1025 l 453 1129 l 296 1017 q 249 1067 257 1033 l 403 1217 q 501 1217 451 1225 l 656 1074 q 604 1025 643 1036 z "},"Õ":{"ha":907,"x_min":79,"x_max":828,"o":"m 203 615 q 194 547 196 582 q 192 475 192 511 q 201 342 192 413 q 239 212 211 272 q 318 112 267 151 q 453 72 369 72 q 550 92 508 72 q 621 142 592 111 q 667 215 650 174 q 695 302 685 257 q 710 392 706 347 q 714 475 714 436 q 704 607 714 536 q 666 738 694 678 q 587 837 638 797 q 453 876 536 876 q 346 853 390 876 q 273 794 301 831 q 228 710 244 757 q 203 615 213 664 m 226 64 q 79 474 79 194 q 103 674 79 583 q 175 830 128 765 q 292 930 222 894 q 453 965 363 965 q 619 926 549 965 q 737 819 690 886 q 806 663 783 751 q 828 475 828 574 q 803 274 828 365 q 732 119 779 183 q 615 19 685 54 q 453 -17 544 -17 q 226 64 315 -17 m 478 1049 l 393 1089 q 369 1098 381 1094 q 347 1101 358 1101 q 318 1093 333 1100 q 288 1067 303 1086 l 271 1044 q 218 1076 233 1047 l 229 1104 q 283 1171 247 1149 q 357 1193 318 1193 q 393 1189 375 1194 q 431 1175 411 1183 l 515 1135 q 538 1126 526 1129 q 560 1122 549 1122 q 590 1129 574 1122 q 621 1157 606 1136 l 638 1179 q 690 1144 671 1178 l 679 1118 q 627 1051 660 1074 q 553 1029 594 1029 q 478 1049 519 1029 z "},"Ö":{"ha":907,"x_min":79,"x_max":828,"o":"m 203 615 q 194 547 196 582 q 192 475 192 511 q 201 342 192 413 q 239 212 211 272 q 318 112 267 151 q 453 72 369 72 q 550 92 508 72 q 621 142 592 111 q 667 215 650 174 q 695 302 685 257 q 710 392 706 347 q 714 475 714 436 q 704 607 714 536 q 666 738 694 678 q 587 837 638 797 q 453 876 536 876 q 346 853 390 876 q 273 794 301 831 q 228 710 244 757 q 203 615 213 664 m 226 64 q 79 474 79 194 q 103 674 79 583 q 175 830 128 765 q 292 930 222 894 q 453 965 363 965 q 619 926 549 965 q 737 819 690 886 q 806 663 783 751 q 828 475 828 574 q 803 274 828 365 q 732 119 779 183 q 615 19 685 54 q 453 -17 544 -17 q 226 64 315 -17 m 533 1136 q 557 1144 542 1142 q 589 1147 572 1147 q 649 1136 624 1147 q 657 1085 657 1108 q 656 1061 657 1072 q 650 1042 656 1050 q 630 1028 644 1033 q 589 1024 615 1024 q 549 1029 563 1024 q 530 1043 536 1035 q 523 1063 524 1051 q 522 1085 522 1074 q 533 1136 522 1114 m 257 1136 q 284 1144 268 1142 q 317 1147 300 1147 q 353 1142 340 1147 q 373 1129 367 1138 q 381 1109 379 1121 q 382 1085 382 1097 q 382 1063 382 1074 q 376 1043 382 1051 q 356 1029 369 1035 q 315 1024 342 1024 q 274 1029 288 1024 q 255 1043 261 1035 q 249 1063 249 1051 q 249 1085 249 1074 q 257 1136 249 1107 z "},"×":{"ha":736,"x_min":111,"x_max":625,"o":"m 368 336 l 181 146 q 140 174 160 154 q 111 217 119 194 l 300 403 q 111 590 267 436 q 181 661 133 643 l 336 504 q 368 471 346 490 l 556 661 q 625 590 607 635 q 460 428 468 436 q 435 403 447 415 l 625 217 q 556 146 604 164 l 400 303 q 368 336 389 313 z "},"Ø":{"ha":907,"x_min":79,"x_max":828,"o":"m 79 475 q 102 663 79 574 q 170 819 125 751 q 283 926 215 886 q 439 965 350 965 q 638 917 561 965 l 689 1007 q 764 967 738 1000 l 706 860 q 828 461 828 728 q 803 271 828 358 q 732 119 779 183 q 615 19 685 56 q 453 -17 544 -17 q 268 32 344 -17 l 218 -58 q 143 -17 169 -53 l 201 88 q 79 475 79 222 m 254 185 l 592 833 q 456 876 535 876 q 329 844 381 876 q 247 754 278 811 q 203 621 217 697 q 190 458 190 544 q 254 185 190 290 m 715 475 q 653 763 715 658 l 314 115 q 443 72 371 72 q 576 106 524 72 q 660 197 629 140 q 703 326 690 253 q 715 475 715 399 z "},"Ù":{"ha":925,"x_min":126,"x_max":800,"o":"m 800 949 l 800 324 q 776 177 800 240 q 708 71 751 114 q 601 6 664 28 q 463 -17 539 -17 q 324 6 386 -17 q 217 71 261 28 q 150 177 174 114 q 126 324 126 240 l 126 944 l 135 953 l 176 953 q 221 937 210 953 q 232 883 232 921 l 232 325 q 292 137 232 203 q 463 71 353 71 q 633 135 572 71 q 693 325 693 200 l 693 949 q 746 953 714 953 q 800 949 776 953 m 340 1225 l 606 1071 q 572 1013 597 1029 l 288 1132 q 340 1225 297 1199 z "},"Ú":{"ha":925,"x_min":126,"x_max":800,"o":"m 800 949 l 800 324 q 776 177 800 240 q 708 71 751 114 q 601 6 664 28 q 463 -17 539 -17 q 324 6 386 -17 q 217 71 261 28 q 150 177 174 114 q 126 324 126 240 l 126 944 l 135 953 l 176 953 q 221 937 210 953 q 232 883 232 921 l 232 325 q 292 137 232 203 q 463 71 353 71 q 633 135 572 71 q 693 325 693 200 l 693 949 q 746 953 714 953 q 800 949 776 953 m 340 1071 l 606 1225 q 658 1132 646 1200 l 374 1013 q 340 1071 346 1032 z "},"Û":{"ha":925,"x_min":126,"x_max":800,"o":"m 800 949 l 800 324 q 776 177 800 240 q 708 71 751 114 q 601 6 664 28 q 463 -17 539 -17 q 324 6 386 -17 q 217 71 261 28 q 150 177 174 114 q 126 324 126 240 l 126 944 l 135 953 l 176 953 q 221 937 210 953 q 232 883 232 921 l 232 325 q 292 137 232 203 q 463 71 353 71 q 633 135 572 71 q 693 325 693 200 l 693 949 q 746 953 714 953 q 800 949 776 953 m 614 1025 l 463 1129 l 306 1017 q 258 1067 267 1033 l 413 1217 q 511 1217 461 1225 l 665 1074 q 614 1025 653 1036 z "},"Ü":{"ha":925,"x_min":126,"x_max":800,"o":"m 800 949 l 800 324 q 776 177 800 240 q 708 71 751 114 q 601 6 664 28 q 463 -17 539 -17 q 324 6 386 -17 q 217 71 261 28 q 150 177 174 114 q 126 324 126 240 l 126 944 l 135 953 l 176 953 q 221 937 210 953 q 232 883 232 921 l 232 325 q 292 137 232 203 q 463 71 353 71 q 633 135 572 71 q 693 325 693 200 l 693 949 q 746 953 714 953 q 800 949 776 953 m 543 1136 q 567 1144 551 1142 q 599 1147 582 1147 q 658 1136 633 1147 q 667 1085 667 1108 q 666 1061 667 1072 q 660 1042 665 1050 q 640 1028 654 1033 q 599 1024 625 1024 q 559 1029 572 1024 q 540 1043 546 1035 q 533 1063 533 1051 q 532 1085 532 1074 q 543 1136 532 1114 m 267 1136 q 294 1144 278 1142 q 326 1147 310 1147 q 363 1142 350 1147 q 383 1129 376 1138 q 390 1109 389 1121 q 392 1085 392 1097 q 392 1063 392 1074 q 385 1043 392 1051 q 365 1029 379 1035 q 325 1024 351 1024 q 284 1029 297 1024 q 265 1043 271 1035 q 258 1063 258 1051 q 258 1085 258 1074 q 267 1136 258 1107 z "},"Ý":{"ha":668,"x_min":21,"x_max":650,"o":"m 403 585 l 547 949 q 570 953 558 951 q 594 954 582 954 q 646 947 618 954 l 650 939 l 389 308 l 389 0 q 335 -4 365 -4 q 282 0 303 -4 l 282 313 l 21 936 q 54 952 38 946 q 86 958 71 958 q 122 947 106 958 q 149 907 138 935 l 282 585 q 306 522 292 561 q 339 425 321 483 l 346 425 q 363 477 349 438 q 403 585 378 517 m 217 1071 l 482 1225 q 535 1132 522 1200 l 250 1013 q 217 1071 222 1032 z "},"Þ":{"ha":778,"x_min":138,"x_max":715,"o":"m 138 0 l 138 949 q 190 953 158 953 q 243 949 222 953 l 243 801 q 337 803 296 803 q 408 804 378 804 q 533 785 476 804 q 631 727 590 765 q 693 633 671 689 q 715 507 715 578 q 693 381 715 436 q 631 287 671 325 q 534 228 590 249 q 408 208 478 208 l 243 208 l 243 0 q 190 -4 222 -4 q 138 0 158 -4 m 243 297 l 411 299 q 501 316 464 299 q 560 362 538 333 q 592 428 582 390 q 601 511 601 467 q 592 587 601 550 q 559 652 582 624 q 499 697 536 681 q 408 714 463 714 q 314 714 356 714 q 243 715 272 714 l 243 297 z "},"ß":{"ha":849,"x_min":29,"x_max":794,"o":"m 153 0 l 153 565 l 33 564 q 29 608 29 585 q 33 653 29 632 l 153 650 l 153 708 q 174 819 153 771 q 232 901 194 868 q 322 952 269 935 q 440 969 375 969 q 557 950 504 969 q 647 895 610 931 q 703 810 683 860 q 724 700 724 761 q 703 592 724 650 l 700 592 l 703 590 q 608 544 640 575 q 576 479 576 513 q 590 435 576 460 q 639 383 604 411 l 690 342 q 769 253 743 299 q 794 169 794 208 q 777 95 794 129 q 728 36 760 61 q 654 -3 697 11 q 561 -17 611 -17 q 383 24 461 -17 q 397 65 385 42 q 425 100 408 88 q 488 74 457 82 q 549 67 519 67 q 646 92 607 67 q 685 160 685 118 q 669 212 683 183 q 621 269 656 240 l 564 317 q 469 469 469 394 q 508 567 469 524 q 613 635 546 611 q 621 692 621 664 q 574 835 621 779 q 436 890 528 890 q 302 840 347 890 q 257 697 257 789 l 257 0 q 204 -4 233 -4 q 153 0 174 -4 z "},"à":{"ha":700,"x_min":71,"x_max":622,"o":"m 622 43 q 575 -10 607 4 q 489 88 507 15 q 279 -17 382 -17 q 188 0 226 -17 q 123 44 149 17 q 84 108 97 72 q 71 185 71 144 q 90 283 71 240 q 141 353 108 325 q 218 394 174 381 q 314 408 263 408 q 483 396 418 408 l 483 465 q 358 607 483 607 q 132 550 263 607 q 96 631 96 582 q 368 696 246 696 q 583 464 583 696 l 583 178 q 592 95 582 128 q 622 43 603 63 m 483 182 l 483 321 q 414 328 450 326 q 338 331 378 331 q 217 294 258 331 q 175 197 175 257 q 204 105 175 139 q 283 71 233 71 q 388 99 335 71 q 483 182 442 128 m 246 1003 l 436 789 q 388 744 421 753 l 161 925 q 246 1003 186 985 z "},"á":{"ha":700,"x_min":71,"x_max":622,"o":"m 622 43 q 575 -10 607 4 q 489 88 507 15 q 279 -17 382 -17 q 188 0 226 -17 q 123 44 149 17 q 84 108 97 72 q 71 185 71 144 q 90 283 71 240 q 141 353 108 325 q 218 394 174 381 q 314 408 263 408 q 483 396 418 408 l 483 465 q 358 607 483 607 q 132 550 263 607 q 96 631 96 582 q 368 696 246 696 q 583 464 583 696 l 583 178 q 592 95 582 128 q 622 43 603 63 m 483 182 l 483 321 q 414 328 450 326 q 338 331 378 331 q 217 294 258 331 q 175 197 175 257 q 204 105 175 139 q 283 71 233 71 q 388 99 335 71 q 483 182 442 128 m 247 789 l 438 1003 q 522 925 497 985 l 296 744 q 247 789 263 753 z "},"â":{"ha":700,"x_min":71,"x_max":622,"o":"m 622 43 q 575 -10 607 4 q 489 88 507 15 q 279 -17 382 -17 q 188 0 226 -17 q 123 44 149 17 q 84 108 97 72 q 71 185 71 144 q 90 283 71 240 q 141 353 108 325 q 218 394 174 381 q 314 408 263 408 q 483 396 418 408 l 483 465 q 358 607 483 607 q 132 550 263 607 q 96 631 96 582 q 368 696 246 696 q 583 464 583 696 l 583 178 q 592 95 582 128 q 622 43 603 63 m 483 182 l 483 321 q 414 328 450 326 q 338 331 378 331 q 217 294 258 331 q 175 197 175 257 q 204 105 175 139 q 283 71 233 71 q 388 99 335 71 q 483 182 442 128 m 467 754 l 335 885 l 194 747 q 144 796 161 761 l 292 979 q 382 981 326 989 l 522 804 q 467 754 504 768 z "},"ã":{"ha":700,"x_min":71,"x_max":622,"o":"m 622 43 q 575 -10 607 4 q 489 88 507 15 q 279 -17 382 -17 q 188 0 226 -17 q 123 44 149 17 q 84 108 97 72 q 71 185 71 144 q 90 283 71 240 q 141 353 108 325 q 218 394 174 381 q 314 408 263 408 q 483 396 418 408 l 483 465 q 358 607 483 607 q 132 550 263 607 q 96 631 96 582 q 368 696 246 696 q 583 464 583 696 l 583 178 q 592 95 582 128 q 622 43 603 63 m 483 182 l 483 321 q 414 328 450 326 q 338 331 378 331 q 217 294 258 331 q 175 197 175 257 q 204 105 175 139 q 283 71 233 71 q 388 99 335 71 q 483 182 442 128 m 358 793 l 274 835 q 228 847 249 847 q 199 839 213 847 q 169 811 186 831 l 151 789 q 99 822 108 792 l 111 850 q 236 940 151 940 q 311 921 269 940 l 396 881 q 418 872 407 875 q 440 868 429 868 q 500 904 468 867 l 518 925 q 571 892 556 924 l 558 864 q 433 774 517 774 q 358 793 400 774 z "},"ä":{"ha":700,"x_min":71,"x_max":622,"o":"m 622 43 q 575 -10 607 4 q 489 88 507 15 q 279 -17 382 -17 q 188 0 226 -17 q 123 44 149 17 q 84 108 97 72 q 71 185 71 144 q 90 283 71 240 q 141 353 108 325 q 218 394 174 381 q 314 408 263 408 q 483 396 418 408 l 483 465 q 358 607 483 607 q 132 550 263 607 q 96 631 96 582 q 368 696 246 696 q 583 464 583 696 l 583 178 q 592 95 582 128 q 622 43 603 63 m 483 182 l 483 321 q 414 328 450 326 q 338 331 378 331 q 217 294 258 331 q 175 197 175 257 q 204 105 175 139 q 283 71 233 71 q 388 99 335 71 q 483 182 442 128 m 403 889 q 458 901 424 901 q 512 884 501 901 q 522 840 522 867 q 511 797 522 813 q 458 782 500 782 q 422 787 435 782 q 402 800 408 792 q 394 819 396 808 q 393 842 393 829 q 403 889 393 865 m 157 889 q 181 899 167 896 q 211 901 196 901 q 267 889 243 901 q 274 864 271 876 q 276 840 276 851 q 265 797 276 811 q 211 782 253 782 q 175 787 188 782 q 156 800 163 792 q 149 819 150 808 q 147 842 147 831 q 157 889 147 865 z "},"å":{"ha":700,"x_min":71,"x_max":622,"o":"m 622 43 q 575 -10 607 4 q 489 88 507 15 q 279 -17 382 -17 q 188 0 226 -17 q 123 44 149 17 q 84 108 97 72 q 71 185 71 144 q 90 283 71 240 q 141 353 108 325 q 218 394 174 381 q 314 408 263 408 q 483 396 418 408 l 483 465 q 358 607 483 607 q 132 550 263 607 q 96 631 96 582 q 368 696 246 696 q 583 464 583 696 l 583 178 q 592 95 582 128 q 622 43 603 63 m 483 182 l 483 321 q 414 328 450 326 q 338 331 378 331 q 217 294 258 331 q 175 197 175 257 q 204 105 175 139 q 283 71 233 71 q 388 99 335 71 q 483 182 442 128 m 335 744 q 274 756 301 744 q 226 788 246 768 q 194 834 206 807 q 182 890 182 861 q 225 995 182 953 q 335 1038 268 1038 q 444 995 401 1038 q 488 890 488 953 q 476 834 488 861 q 444 788 464 807 q 396 756 424 768 q 335 744 368 744 m 335 969 q 284 947 304 969 q 264 890 264 925 q 284 835 264 857 q 335 813 304 813 q 385 835 365 813 q 406 890 406 857 q 385 947 406 925 q 335 969 365 969 z "},"æ":{"ha":1106,"x_min":71,"x_max":1025,"o":"m 1019 310 l 589 310 q 767 74 596 74 q 968 133 863 74 q 1006 61 999 107 q 754 -17 894 -17 q 528 111 594 -17 q 415 20 482 57 q 261 -17 349 -17 q 183 -1 218 -17 q 122 43 147 15 q 84 108 97 71 q 71 186 71 144 q 140 353 71 299 q 331 408 208 408 q 483 394 406 408 l 483 467 q 358 607 483 607 q 132 550 263 607 q 96 631 96 582 q 374 696 246 696 q 554 594 504 696 q 758 699 631 699 q 872 676 822 699 q 955 615 921 654 q 1007 520 989 575 q 1025 401 1025 465 q 1024 355 1025 378 q 1019 310 1022 332 m 499 193 q 482 318 486 247 q 335 331 411 331 q 217 294 260 331 q 175 199 175 258 q 204 106 175 140 q 286 71 233 71 q 399 101 340 71 q 499 193 457 131 m 589 389 l 919 389 l 919 404 q 880 560 919 500 q 760 619 840 619 q 638 558 681 619 q 589 389 594 497 z "},"ç":{"ha":651,"x_min":72,"x_max":592,"o":"m 276 -100 q 306 -14 289 -54 q 201 23 244 -7 q 128 100 157 53 q 86 207 100 147 q 72 335 72 267 q 94 492 72 424 q 153 606 115 560 q 243 675 192 651 q 353 699 294 699 q 457 680 413 699 q 531 632 501 661 q 576 568 561 603 q 592 503 592 533 q 538 436 592 436 q 493 440 518 436 l 493 456 q 485 515 493 486 q 459 567 476 544 q 415 602 442 589 q 350 615 388 615 q 225 543 271 615 q 179 338 179 471 q 224 138 179 204 q 347 72 269 72 q 535 149 429 72 q 583 83 572 126 q 385 -14 497 1 q 375 -34 379 -24 q 367 -56 371 -44 q 455 -92 421 -60 q 489 -178 489 -124 q 445 -269 489 -233 q 338 -304 401 -304 q 233 -278 272 -304 q 260 -217 236 -244 q 331 -236 290 -236 q 399 -175 399 -236 q 332 -115 399 -115 q 299 -122 317 -115 q 276 -100 283 -117 z "},"è":{"ha":699,"x_min":72,"x_max":618,"o":"m 611 310 l 181 310 q 360 74 188 74 q 561 132 454 74 q 599 61 592 104 q 343 -17 485 -17 q 219 10 271 -17 q 135 85 168 38 q 88 199 103 133 q 72 342 72 264 q 91 486 72 421 q 146 599 110 551 q 233 672 182 646 q 349 699 283 699 q 463 676 413 699 q 548 613 514 653 q 600 519 582 574 q 618 401 618 464 q 616 353 618 376 q 611 310 614 331 m 181 389 l 514 389 l 514 407 q 474 561 514 503 q 353 619 433 619 q 230 557 274 619 q 181 389 186 494 m 265 1003 l 456 789 q 407 744 440 753 l 181 925 q 265 1003 206 985 z "},"é":{"ha":699,"x_min":72,"x_max":618,"o":"m 611 310 l 181 310 q 360 74 188 74 q 561 132 454 74 q 599 61 592 104 q 343 -17 485 -17 q 219 10 271 -17 q 135 85 168 38 q 88 199 103 133 q 72 342 72 264 q 91 486 72 421 q 146 599 110 551 q 233 672 182 646 q 349 699 283 699 q 463 676 413 699 q 548 613 514 653 q 600 519 582 574 q 618 401 618 464 q 616 353 618 376 q 611 310 614 331 m 181 389 l 514 389 l 514 407 q 474 561 514 503 q 353 619 433 619 q 230 557 274 619 q 181 389 186 494 m 263 789 l 453 1003 q 538 925 513 985 l 311 744 q 263 789 278 753 z "},"ê":{"ha":699,"x_min":72,"x_max":618,"o":"m 611 310 l 181 310 q 360 74 188 74 q 561 132 454 74 q 599 61 592 104 q 343 -17 485 -17 q 219 10 271 -17 q 135 85 168 38 q 88 199 103 133 q 72 342 72 264 q 91 486 72 421 q 146 599 110 551 q 233 672 182 646 q 349 699 283 699 q 463 676 413 699 q 548 613 514 653 q 600 519 582 574 q 618 401 618 464 q 616 353 618 376 q 611 310 614 331 m 181 389 l 514 389 l 514 407 q 474 561 514 503 q 353 619 433 619 q 230 557 274 619 q 181 389 186 494 m 486 754 l 354 885 l 214 747 q 164 796 181 761 l 311 979 q 401 981 346 989 l 542 804 q 486 754 524 768 z "},"ë":{"ha":699,"x_min":72,"x_max":618,"o":"m 611 310 l 181 310 q 360 74 188 74 q 561 132 454 74 q 599 61 592 104 q 343 -17 485 -17 q 219 10 271 -17 q 135 85 168 38 q 88 199 103 133 q 72 342 72 264 q 91 486 72 421 q 146 599 110 551 q 233 672 182 646 q 349 699 283 699 q 463 676 413 699 q 548 613 514 653 q 600 519 582 574 q 618 401 618 464 q 616 353 618 376 q 611 310 614 331 m 181 389 l 514 389 l 514 407 q 474 561 514 503 q 353 619 433 619 q 230 557 274 619 q 181 389 186 494 m 422 889 q 478 901 443 901 q 531 884 521 901 q 542 840 542 867 q 531 797 542 813 q 478 782 519 782 q 441 787 454 782 q 422 800 428 792 q 414 819 415 808 q 413 842 413 829 q 422 889 413 865 m 176 889 q 201 899 186 896 q 231 901 215 901 q 286 889 263 901 q 293 864 290 876 q 296 840 296 851 q 284 797 296 811 q 231 782 272 782 q 194 787 207 782 q 176 800 182 792 q 168 819 169 808 q 167 842 167 831 q 176 889 167 865 z "},"ì":{"ha":356,"x_min":-12,"x_max":263,"o":"m 236 586 l 236 0 q 185 -4 215 -4 q 133 0 154 -4 l 133 536 q 121 589 133 575 q 76 603 108 603 l 64 603 q 58 640 58 618 q 64 679 58 663 q 107 684 90 682 q 133 686 124 686 l 144 686 q 212 659 188 686 q 236 586 236 632 m 72 1003 l 263 789 q 214 744 247 753 l -12 925 q 72 1003 13 985 z "},"í":{"ha":356,"x_min":58,"x_max":346,"o":"m 236 586 l 236 0 q 185 -4 215 -4 q 133 0 154 -4 l 133 536 q 121 589 133 575 q 76 603 108 603 l 64 603 q 58 640 58 618 q 64 679 58 663 q 107 684 90 682 q 133 686 124 686 l 144 686 q 212 659 188 686 q 236 586 236 632 m 71 789 l 261 1003 q 346 925 321 985 l 119 744 q 71 789 86 753 z "},"î":{"ha":356,"x_min":-28,"x_max":350,"o":"m 236 586 l 236 0 q 185 -4 215 -4 q 133 0 154 -4 l 133 536 q 121 589 133 575 q 76 603 108 603 l 64 603 q 58 640 58 618 q 64 679 58 663 q 107 684 90 682 q 133 686 124 686 l 144 686 q 212 659 188 686 q 236 586 236 632 m 294 754 l 163 885 l 22 747 q -28 796 -11 761 l 119 979 q 210 981 154 989 l 350 804 q 294 754 332 768 z "},"ï":{"ha":356,"x_min":-26,"x_max":349,"o":"m 236 586 l 236 0 q 185 -4 215 -4 q 133 0 154 -4 l 133 536 q 121 589 133 575 q 76 603 108 603 l 64 603 q 58 640 58 618 q 64 679 58 663 q 107 684 90 682 q 133 686 124 686 l 144 686 q 212 659 188 686 q 236 586 236 632 m 229 889 q 285 901 250 901 q 338 884 328 901 q 349 840 349 867 q 338 797 349 813 q 285 782 326 782 q 248 787 261 782 q 228 800 235 792 q 221 819 222 808 q 219 842 219 829 q 229 889 219 865 m -17 889 q 8 899 -7 896 q 38 901 22 901 q 93 889 69 901 q 100 864 97 876 q 103 840 103 851 q 91 797 103 811 q 38 782 79 782 q 1 787 14 782 q -17 800 -11 792 q -25 819 -24 808 q -26 842 -26 831 q -17 889 -26 865 z "},"ð":{"ha":717,"x_min":69,"x_max":646,"o":"m 176 794 l 307 885 q 181 965 251 932 q 224 1033 190 1015 q 383 938 317 990 l 506 1022 q 533 994 519 1013 q 549 960 547 975 l 440 885 q 646 336 646 675 q 627 194 646 258 q 572 83 608 129 q 481 10 535 36 q 357 -17 428 -17 q 234 10 288 -17 q 144 83 181 36 q 88 192 107 129 q 69 331 69 256 q 89 467 69 404 q 144 577 108 531 q 234 650 181 624 q 356 676 288 676 q 485 644 418 676 q 364 832 449 742 l 219 732 q 192 760 206 740 q 176 794 178 779 m 515 542 q 354 594 446 594 q 274 574 308 594 q 219 519 240 554 q 187 436 197 485 q 176 332 176 388 q 186 228 176 276 q 218 142 196 179 q 275 85 240 106 q 358 64 310 64 q 446 88 411 64 q 501 151 481 111 q 531 241 522 190 q 540 346 540 292 q 534 442 540 392 q 515 542 528 492 z "},"ñ":{"ha":757,"x_min":122,"x_max":658,"o":"m 643 476 l 643 132 q 658 14 643 53 q 593 -8 636 -8 q 540 60 540 -8 l 540 444 q 519 565 540 529 q 440 600 499 600 q 325 570 385 600 q 225 493 265 540 l 225 0 q 174 -4 204 -4 q 122 0 143 -4 l 122 678 l 131 686 l 169 686 q 214 669 203 686 q 225 614 225 651 l 225 594 q 336 666 272 639 q 464 693 400 693 q 600 633 557 693 q 643 476 643 574 m 408 793 l 324 835 q 278 847 299 847 q 249 839 263 847 q 219 811 236 831 l 201 789 q 149 822 158 792 l 161 850 q 286 940 201 940 q 361 921 319 940 l 446 881 q 468 872 457 875 q 490 868 479 868 q 550 904 518 867 l 568 925 q 621 892 606 924 l 608 864 q 483 774 567 774 q 408 793 450 774 z "},"ò":{"ha":721,"x_min":72,"x_max":649,"o":"m 551 57 q 360 -17 478 -17 q 237 10 290 -17 q 147 83 183 36 q 91 195 110 129 q 72 340 72 261 q 91 485 72 419 q 147 599 110 551 q 237 672 183 646 q 360 699 290 699 q 483 672 429 699 q 573 599 536 646 q 629 485 610 551 q 649 340 649 419 q 551 57 649 154 m 361 64 q 497 140 450 64 q 543 340 543 215 q 533 447 543 396 q 500 535 522 497 q 443 596 478 574 q 360 618 408 618 q 278 597 313 618 q 222 538 244 575 q 190 449 200 500 q 179 340 179 399 q 190 232 179 282 q 222 144 200 182 q 278 85 243 107 q 361 64 313 64 m 271 1003 l 461 789 q 413 744 446 753 l 186 925 q 271 1003 211 985 z "},"ó":{"ha":721,"x_min":72,"x_max":649,"o":"m 551 57 q 360 -17 478 -17 q 237 10 290 -17 q 147 83 183 36 q 91 195 110 129 q 72 340 72 261 q 91 485 72 419 q 147 599 110 551 q 237 672 183 646 q 360 699 290 699 q 483 672 429 699 q 573 599 536 646 q 629 485 610 551 q 649 340 649 419 q 551 57 649 154 m 361 64 q 497 140 450 64 q 543 340 543 215 q 533 447 543 396 q 500 535 522 497 q 443 596 478 574 q 360 618 408 618 q 278 597 313 618 q 222 538 244 575 q 190 449 200 500 q 179 340 179 399 q 190 232 179 282 q 222 144 200 182 q 278 85 243 107 q 361 64 313 64 m 269 789 l 460 1003 q 544 925 519 985 l 318 744 q 269 789 285 753 z "},"ô":{"ha":721,"x_min":72,"x_max":649,"o":"m 551 57 q 360 -17 478 -17 q 237 10 290 -17 q 147 83 183 36 q 91 195 110 129 q 72 340 72 261 q 91 485 72 419 q 147 599 110 551 q 237 672 183 646 q 360 699 290 699 q 483 672 429 699 q 573 599 536 646 q 629 485 610 551 q 649 340 649 419 q 551 57 649 154 m 361 64 q 497 140 450 64 q 543 340 543 215 q 533 447 543 396 q 500 535 522 497 q 443 596 478 574 q 360 618 408 618 q 278 597 313 618 q 222 538 244 575 q 190 449 200 500 q 179 340 179 399 q 190 232 179 282 q 222 144 200 182 q 278 85 243 107 q 361 64 313 64 m 492 754 l 360 885 l 219 747 q 169 796 186 761 l 317 979 q 407 981 351 989 l 547 804 q 492 754 529 768 z "},"õ":{"ha":721,"x_min":72,"x_max":649,"o":"m 551 57 q 360 -17 478 -17 q 237 10 290 -17 q 147 83 183 36 q 91 195 110 129 q 72 340 72 261 q 91 485 72 419 q 147 599 110 551 q 237 672 183 646 q 360 699 290 699 q 483 672 429 699 q 573 599 536 646 q 629 485 610 551 q 649 340 649 419 q 551 57 649 154 m 361 64 q 497 140 450 64 q 543 340 543 215 q 533 447 543 396 q 500 535 522 497 q 443 596 478 574 q 360 618 408 618 q 278 597 313 618 q 222 538 244 575 q 190 449 200 500 q 179 340 179 399 q 190 232 179 282 q 222 144 200 182 q 278 85 243 107 q 361 64 313 64 m 383 793 l 299 835 q 253 847 274 847 q 224 839 238 847 q 194 811 211 831 l 176 789 q 124 822 133 792 l 136 850 q 261 940 176 940 q 336 921 294 940 l 421 881 q 443 872 432 875 q 465 868 454 868 q 525 904 493 867 l 543 925 q 596 892 581 924 l 583 864 q 458 774 542 774 q 383 793 425 774 z "},"ö":{"ha":721,"x_min":72,"x_max":649,"o":"m 551 57 q 360 -17 478 -17 q 237 10 290 -17 q 147 83 183 36 q 91 195 110 129 q 72 340 72 261 q 91 485 72 419 q 147 599 110 551 q 237 672 183 646 q 360 699 290 699 q 483 672 429 699 q 573 599 536 646 q 629 485 610 551 q 649 340 649 419 q 551 57 649 154 m 361 64 q 497 140 450 64 q 543 340 543 215 q 533 447 543 396 q 500 535 522 497 q 443 596 478 574 q 360 618 408 618 q 278 597 313 618 q 222 538 244 575 q 190 449 200 500 q 179 340 179 399 q 190 232 179 282 q 222 144 200 182 q 278 85 243 107 q 361 64 313 64 m 428 889 q 483 901 449 901 q 537 884 526 901 q 547 840 547 867 q 536 797 547 813 q 483 782 525 782 q 447 787 460 782 q 427 800 433 792 q 419 819 421 808 q 418 842 418 829 q 428 889 418 865 m 182 889 q 206 899 192 896 q 236 901 221 901 q 292 889 268 901 q 299 864 296 876 q 301 840 301 851 q 290 797 301 811 q 236 782 278 782 q 200 787 213 782 q 181 800 188 792 q 174 819 175 808 q 172 842 172 831 q 182 889 172 865 z "},"÷":{"ha":736,"x_min":76,"x_max":660,"o":"m 307 599 q 296 649 296 621 q 307 700 296 678 q 369 715 326 715 q 429 700 411 715 q 439 649 439 681 q 429 599 439 618 q 369 583 411 583 q 307 599 326 583 m 307 104 q 296 155 296 126 q 307 206 296 183 q 369 221 326 221 q 429 206 411 221 q 439 155 439 186 q 429 104 439 124 q 370 89 414 89 q 307 104 326 89 m 654 357 l 82 357 q 76 403 76 374 q 82 453 76 432 l 654 453 q 660 403 660 432 q 654 357 660 374 z "},"ø":{"ha":721,"x_min":72,"x_max":649,"o":"m 553 621 q 649 339 649 525 q 629 194 649 260 q 573 81 610 128 q 483 9 536 35 q 360 -17 429 -17 q 228 13 283 -17 l 178 -74 q 139 -61 160 -72 q 108 -36 118 -50 l 164 63 q 72 342 72 158 q 92 487 72 421 q 147 599 111 553 q 237 672 183 646 q 360 699 290 699 q 489 669 432 699 l 540 757 q 578 744 557 756 q 608 718 599 732 l 553 621 m 506 535 l 269 88 q 361 63 308 63 q 447 85 411 63 q 504 145 482 107 q 537 234 526 183 q 547 343 547 285 q 506 535 547 461 m 213 151 l 447 597 q 361 621 407 621 q 276 599 311 621 q 217 538 240 576 q 184 449 194 500 q 174 340 174 397 q 213 151 174 224 z "},"ù":{"ha":758,"x_min":99,"x_max":674,"o":"m 115 204 l 115 550 q 99 668 115 624 q 164 690 122 690 q 217 622 217 690 l 217 238 q 239 115 217 150 q 317 81 261 81 q 432 110 372 81 q 532 188 492 140 l 532 681 q 554 685 540 683 q 583 686 568 686 q 612 685 599 686 q 635 681 625 683 l 635 192 q 674 43 635 81 q 626 -10 661 4 q 539 93 558 13 q 426 17 492 46 q 293 -12 360 -12 q 158 47 200 -12 q 115 204 115 107 m 285 1003 l 475 789 q 426 744 460 753 l 200 925 q 285 1003 225 985 z "},"ú":{"ha":758,"x_min":99,"x_max":674,"o":"m 115 204 l 115 550 q 99 668 115 624 q 164 690 122 690 q 217 622 217 690 l 217 238 q 239 115 217 150 q 317 81 261 81 q 432 110 372 81 q 532 188 492 140 l 532 681 q 554 685 540 683 q 583 686 568 686 q 612 685 599 686 q 635 681 625 683 l 635 192 q 674 43 635 81 q 626 -10 661 4 q 539 93 558 13 q 426 17 492 46 q 293 -12 360 -12 q 158 47 200 -12 q 115 204 115 107 m 283 789 l 474 1003 q 558 925 533 985 l 332 744 q 283 789 299 753 z "},"û":{"ha":758,"x_min":99,"x_max":674,"o":"m 115 204 l 115 550 q 99 668 115 624 q 164 690 122 690 q 217 622 217 690 l 217 238 q 239 115 217 150 q 317 81 261 81 q 432 110 372 81 q 532 188 492 140 l 532 681 q 554 685 540 683 q 583 686 568 686 q 612 685 599 686 q 635 681 625 683 l 635 192 q 674 43 635 81 q 626 -10 661 4 q 539 93 558 13 q 426 17 492 46 q 293 -12 360 -12 q 158 47 200 -12 q 115 204 115 107 m 506 754 l 374 885 l 233 747 q 183 796 200 761 l 331 979 q 421 981 365 989 l 561 804 q 506 754 543 768 z "},"ü":{"ha":758,"x_min":99,"x_max":674,"o":"m 115 204 l 115 550 q 99 668 115 624 q 164 690 122 690 q 217 622 217 690 l 217 238 q 239 115 217 150 q 317 81 261 81 q 432 110 372 81 q 532 188 492 140 l 532 681 q 554 685 540 683 q 583 686 568 686 q 612 685 599 686 q 635 681 625 683 l 635 192 q 674 43 635 81 q 626 -10 661 4 q 539 93 558 13 q 426 17 492 46 q 293 -12 360 -12 q 158 47 200 -12 q 115 204 115 107 m 440 889 q 496 901 461 901 q 549 884 539 901 q 560 840 560 867 q 549 797 560 813 q 496 782 538 782 q 459 787 472 782 q 440 800 446 792 q 432 819 433 808 q 431 842 431 829 q 440 889 431 865 m 194 889 q 219 899 204 896 q 249 901 233 901 q 304 889 281 901 q 311 864 308 876 q 314 840 314 851 q 302 797 314 811 q 249 782 290 782 q 213 787 225 782 q 194 800 200 792 q 186 819 188 808 q 185 842 185 831 q 194 889 185 865 z "},"ý":{"ha":628,"x_min":7,"x_max":606,"o":"m 606 675 l 415 24 q 303 -229 363 -156 q 124 -303 243 -303 q 11 -285 63 -303 q 33 -210 7 -246 q 125 -225 76 -225 q 238 -175 199 -225 q 308 -19 276 -125 l 313 -6 q 258 11 276 -3 q 226 63 239 25 l 32 674 q 93 692 75 692 q 147 643 133 692 l 257 294 q 321 78 263 278 q 335 68 324 68 l 504 682 q 552 688 522 688 q 603 679 582 688 l 606 675 m 222 789 l 413 1003 q 497 925 472 985 l 271 744 q 222 789 238 753 z "},"þ":{"ha":729,"x_min":122,"x_max":658,"o":"m 222 46 l 222 -229 q 211 -283 222 -267 q 167 -299 200 -299 l 131 -299 l 122 -290 l 122 1013 l 131 1021 l 167 1021 q 211 1005 200 1021 q 222 951 222 989 l 222 600 q 421 693 306 693 q 598 599 538 693 q 658 338 658 506 q 637 190 658 256 q 580 81 615 125 q 499 13 544 36 q 404 -11 453 -11 q 222 46 308 -11 m 222 492 l 222 140 q 306 93 265 108 q 382 78 346 78 q 506 144 457 78 q 554 344 554 210 q 542 460 554 411 q 511 540 531 508 q 466 588 492 572 q 411 603 440 603 q 306 573 356 603 q 222 492 256 543 z "},"ÿ":{"ha":628,"x_min":7,"x_max":606,"o":"m 606 675 l 415 24 q 303 -229 363 -156 q 124 -303 243 -303 q 11 -285 63 -303 q 33 -210 7 -246 q 125 -225 76 -225 q 238 -175 199 -225 q 308 -19 276 -125 l 313 -6 q 258 11 276 -3 q 226 63 239 25 l 32 674 q 93 692 75 692 q 147 643 133 692 l 257 294 q 321 78 263 278 q 335 68 324 68 l 504 682 q 552 688 522 688 q 603 679 582 688 l 606 675 m 381 889 q 436 901 401 901 q 490 884 479 901 q 500 840 500 867 q 489 797 500 813 q 436 782 478 782 q 399 787 413 782 q 380 800 386 792 q 372 819 374 808 q 371 842 371 829 q 381 889 371 865 m 135 889 q 159 899 144 896 q 189 901 174 901 q 244 889 221 901 q 251 864 249 876 q 254 840 254 851 q 242 797 254 811 q 189 782 231 782 q 153 787 165 782 q 134 800 140 792 q 126 819 128 808 q 125 842 125 831 q 135 889 125 865 z "},"Ą":{"ha":828,"x_min":36,"x_max":854,"o":"m 315 246 l 218 247 l 138 -1 q 93 -6 119 -6 q 42 0 67 -6 l 36 6 l 354 949 q 417 953 378 953 q 474 949 456 953 l 792 6 q 717 -54 757 -15 q 668 -156 669 -101 q 688 -208 668 -189 q 745 -226 707 -226 q 828 -201 783 -226 q 854 -257 854 -221 q 727 -301 800 -301 q 615 -268 654 -301 q 576 -176 576 -235 q 683 8 576 -76 q 665 47 674 19 l 599 247 l 501 246 l 315 246 m 249 338 l 329 339 l 489 339 q 523 338 490 339 q 569 338 556 338 l 482 601 q 411 833 429 764 l 404 833 q 357 668 378 731 l 249 338 z "},"ą":{"ha":742,"x_min":71,"x_max":664,"o":"m 638 -201 q 664 -257 664 -222 q 536 -301 608 -301 q 425 -268 464 -301 q 386 -176 386 -235 q 522 29 386 -65 q 490 89 501 53 q 271 -17 385 -17 q 186 0 224 -17 q 123 44 149 17 q 84 108 97 72 q 71 185 71 144 q 90 283 71 240 q 141 353 108 325 q 218 394 174 381 q 314 408 263 408 q 483 396 418 408 l 483 465 q 358 607 483 607 q 132 550 263 607 q 96 631 96 582 q 368 696 246 696 q 583 464 583 696 l 583 178 q 629 47 583 89 q 576 -12 619 22 q 478 -156 478 -92 q 497 -207 478 -187 q 551 -226 517 -226 q 591 -221 569 -226 q 638 -201 613 -215 m 483 182 l 483 321 q 414 328 450 326 q 338 331 378 331 q 217 294 258 331 q 175 197 175 257 q 204 105 175 139 q 283 71 233 71 q 388 99 335 71 q 483 182 442 128 z "},"Ć":{"ha":833,"x_min":79,"x_max":768,"o":"m 661 649 q 649 731 661 690 q 610 805 638 772 q 541 857 583 838 q 439 876 499 876 q 256 772 321 876 q 192 476 192 668 q 258 180 192 283 q 447 76 325 76 q 697 186 571 76 q 756 117 740 161 q 612 20 697 57 q 431 -17 526 -17 q 271 22 338 -17 q 162 126 204 60 q 99 281 119 193 q 79 469 79 369 q 107 686 79 593 q 183 841 135 779 q 297 934 232 903 q 438 965 363 965 q 574 943 513 965 q 678 885 635 921 q 744 801 721 849 q 768 704 768 754 q 708 642 768 642 q 661 649 689 642 m 319 1071 l 585 1225 q 638 1132 625 1200 l 353 1013 q 319 1071 325 1032 z "},"ć":{"ha":651,"x_min":72,"x_max":592,"o":"m 493 440 l 493 456 q 485 515 493 486 q 459 567 476 544 q 415 602 442 589 q 350 615 388 615 q 225 543 271 615 q 179 338 179 471 q 224 138 179 204 q 347 72 269 72 q 535 149 429 72 q 583 83 572 126 q 343 -17 476 -17 q 226 10 276 -17 q 142 81 176 36 q 90 188 107 126 q 72 321 72 250 q 94 488 72 417 q 153 606 115 560 q 243 676 192 653 q 353 699 294 699 q 457 680 413 699 q 531 632 501 661 q 576 568 561 603 q 592 503 592 533 q 538 436 592 436 q 493 440 518 436 m 258 789 l 449 1003 q 533 925 508 985 l 307 744 q 258 789 274 753 z "},"Č":{"ha":833,"x_min":79,"x_max":768,"o":"m 661 649 q 649 731 661 690 q 610 805 638 772 q 541 857 583 838 q 439 876 499 876 q 256 772 321 876 q 192 476 192 668 q 258 180 192 283 q 447 76 325 76 q 697 186 571 76 q 756 117 740 161 q 612 20 697 57 q 431 -17 526 -17 q 271 22 338 -17 q 162 126 204 60 q 99 281 119 193 q 79 469 79 369 q 107 686 79 593 q 183 841 135 779 q 297 934 232 903 q 438 965 363 965 q 574 943 513 965 q 678 885 635 921 q 744 801 721 849 q 768 704 768 754 q 708 642 768 642 q 661 649 689 642 m 289 1218 l 442 1114 l 597 1226 q 627 1206 613 1221 q 646 1176 642 1192 l 490 1026 q 393 1026 432 1021 l 239 1171 q 289 1218 251 1207 z "},"č":{"ha":651,"x_min":72,"x_max":592,"o":"m 493 440 l 493 456 q 485 515 493 486 q 459 567 476 544 q 415 602 442 589 q 350 615 388 615 q 225 543 271 615 q 179 338 179 471 q 224 138 179 204 q 347 72 269 72 q 535 149 429 72 q 583 83 572 126 q 343 -17 476 -17 q 226 10 276 -17 q 142 81 176 36 q 90 188 107 126 q 72 321 72 250 q 94 488 72 417 q 153 606 115 560 q 243 676 192 653 q 353 699 294 699 q 457 680 413 699 q 531 632 501 661 q 576 568 561 603 q 592 503 592 533 q 538 436 592 436 q 493 440 518 436 m 219 990 l 351 861 l 492 997 q 542 950 525 986 l 393 767 q 304 765 358 754 l 164 942 q 219 990 186 982 z "},"Ď":{"ha":886,"x_min":138,"x_max":804,"o":"m 661 65 q 614 35 642 49 q 555 13 586 22 q 492 -1 524 4 q 438 -6 461 -6 q 340 -4 413 -6 q 146 0 268 -3 l 138 8 l 138 940 l 146 949 q 428 953 267 953 q 608 915 536 953 q 724 813 681 878 q 786 660 768 749 q 804 472 804 572 q 798 344 804 403 q 775 235 792 285 q 731 142 758 185 q 661 65 703 100 m 243 85 l 426 83 q 557 115 506 83 q 638 197 608 146 q 680 313 668 249 q 692 440 692 376 q 682 611 692 533 q 642 745 672 689 q 557 833 611 801 q 426 864 503 864 l 243 865 l 243 85 m 267 1218 l 419 1114 l 575 1226 q 605 1206 590 1221 q 624 1176 619 1192 l 468 1026 q 371 1026 410 1021 l 217 1171 q 267 1218 229 1207 z "},"ď":{"ha":776,"x_min":71,"x_max":817,"o":"m 331 693 q 504 636 414 693 l 504 1013 l 513 1021 l 550 1021 q 593 1005 582 1021 q 604 951 604 989 l 604 192 q 643 43 604 82 q 597 -10 629 6 q 513 83 533 13 q 310 -17 426 -17 q 130 78 189 -17 q 71 340 71 172 q 93 491 71 425 q 151 602 115 557 q 234 670 188 647 q 331 693 281 693 m 324 72 q 420 101 371 72 q 504 179 469 129 l 504 542 q 343 604 413 604 q 224 537 272 604 q 175 335 175 469 q 217 136 175 200 q 324 72 260 72 m 692 786 l 710 1068 q 817 1051 775 1076 l 756 782 q 692 786 724 769 z "},"Ę":{"ha":789,"x_min":138,"x_max":713,"o":"m 240 143 l 239 90 q 325 93 286 93 l 706 93 q 703 49 706 64 q 664 3 696 15 q 564 -68 603 -24 q 525 -151 525 -112 q 545 -208 525 -189 q 602 -226 565 -226 q 686 -201 639 -226 q 713 -257 713 -222 q 585 -301 658 -301 q 474 -268 513 -301 q 435 -181 435 -235 q 542 0 435 -74 l 197 0 q 153 19 169 0 q 138 69 138 38 l 138 940 l 146 949 l 682 949 q 685 905 685 932 q 678 857 685 878 l 239 857 l 240 771 l 240 525 l 324 526 l 611 526 q 615 480 615 501 q 611 435 615 458 l 324 435 q 240 436 271 435 l 240 143 z "},"ę":{"ha":699,"x_min":72,"x_max":618,"o":"m 611 310 l 181 310 q 360 74 188 74 q 561 132 454 74 q 599 61 592 104 q 551 33 576 46 q 494 8 525 19 q 393 -156 393 -72 q 413 -208 393 -187 q 469 -228 433 -228 q 554 -201 507 -228 q 581 -257 581 -222 q 453 -301 525 -301 q 342 -268 381 -301 q 303 -175 303 -235 q 385 -15 303 -93 q 368 -17 378 -17 q 346 -17 358 -17 q 220 10 272 -17 q 135 84 168 36 q 88 198 103 132 q 72 342 72 264 q 91 486 72 421 q 144 599 110 551 q 231 672 178 646 q 349 699 283 699 q 463 676 413 699 q 548 613 514 653 q 600 519 582 574 q 618 401 618 464 q 616 353 618 376 q 611 310 614 331 m 181 389 l 514 389 l 514 407 q 474 561 514 503 q 353 619 433 619 q 230 557 274 619 q 181 389 186 494 z "},"Ě":{"ha":782,"x_min":138,"x_max":706,"o":"m 240 143 l 239 90 q 325 93 286 93 l 706 93 q 703 49 706 64 q 635 0 693 0 l 197 0 q 153 19 169 0 q 138 69 138 38 l 138 940 l 146 949 l 682 949 q 685 905 685 932 q 678 857 685 878 l 239 857 l 240 771 l 240 525 l 324 526 l 611 526 q 615 480 615 501 q 611 435 615 458 l 324 435 q 240 436 271 435 l 240 143 m 263 1218 l 415 1114 l 571 1226 q 601 1206 586 1221 q 619 1176 615 1192 l 464 1026 q 367 1026 406 1021 l 213 1171 q 263 1218 225 1207 z "},"ě":{"ha":699,"x_min":72,"x_max":618,"o":"m 611 310 l 181 310 q 360 74 188 74 q 561 132 454 74 q 599 61 592 104 q 343 -17 485 -17 q 219 10 271 -17 q 135 85 168 38 q 88 199 103 133 q 72 342 72 264 q 91 486 72 421 q 146 599 110 551 q 233 672 182 646 q 349 699 283 699 q 463 676 413 699 q 548 613 514 653 q 600 519 582 574 q 618 401 618 464 q 616 353 618 376 q 611 310 614 331 m 181 389 l 514 389 l 514 407 q 474 561 514 503 q 353 619 433 619 q 230 557 274 619 q 181 389 186 494 m 225 990 l 357 861 l 497 997 q 547 950 531 986 l 399 767 q 310 765 364 754 l 169 942 q 225 990 192 982 z "},"Ħ":{"ha":942,"x_min":36,"x_max":906,"o":"m 249 444 l 250 342 l 250 0 q 197 -4 229 -4 q 144 0 165 -4 l 144 690 l 40 690 q 36 735 36 711 q 40 781 36 760 l 144 781 l 144 949 q 197 953 165 953 q 250 949 229 953 l 250 781 l 690 781 l 690 949 q 743 953 711 953 q 797 949 775 953 l 797 781 l 901 781 q 906 735 906 760 q 901 690 906 711 l 797 690 l 797 0 q 743 -4 775 -4 q 690 0 711 -4 l 690 342 l 692 444 l 608 443 l 333 443 l 249 444 m 249 536 l 333 538 l 608 538 l 692 536 l 690 639 l 690 690 l 250 690 l 250 639 l 249 536 z "},"ħ":{"ha":760,"x_min":28,"x_max":661,"o":"m 228 951 l 228 872 l 461 875 q 465 836 465 854 q 461 797 465 818 l 228 800 l 228 593 q 339 665 275 638 q 467 693 403 693 q 602 633 560 693 q 644 475 644 572 l 644 132 q 661 14 644 53 q 596 -8 638 -8 q 543 60 543 -8 l 543 443 q 521 563 543 528 q 443 599 499 599 q 328 569 388 599 q 228 492 268 539 l 228 0 q 176 -4 207 -4 q 126 0 147 -4 l 126 799 l 32 797 q 28 836 28 818 q 32 875 28 854 l 126 874 l 126 1013 l 135 1021 l 172 1021 q 217 1005 206 1021 q 228 951 228 989 z "},"Ĩ":{"ha":392,"x_min":-39,"x_max":433,"o":"m 143 0 l 143 949 q 194 953 163 953 q 249 949 225 953 l 249 0 q 194 -4 225 -4 q 143 0 163 -4 m 221 1049 l 136 1089 q 113 1098 124 1094 q 90 1101 101 1101 q 61 1093 76 1100 q 31 1067 46 1086 l 14 1044 q -39 1076 -24 1047 l -28 1104 q 26 1171 -10 1149 q 100 1193 61 1193 q 136 1189 118 1194 q 174 1175 154 1183 l 258 1135 q 281 1126 269 1129 q 303 1122 292 1122 q 333 1129 317 1122 q 364 1157 349 1136 l 381 1179 q 433 1144 414 1178 l 422 1118 q 370 1051 403 1074 q 296 1029 338 1029 q 221 1049 263 1029 z "},"ĩ":{"ha":356,"x_min":-75,"x_max":397,"o":"m 236 586 l 236 0 q 185 -4 215 -4 q 133 0 154 -4 l 133 536 q 121 589 133 575 q 76 603 108 603 l 64 603 q 58 640 58 618 q 64 679 58 663 q 107 684 90 682 q 133 686 124 686 l 144 686 q 212 659 188 686 q 236 586 236 632 m 185 793 l 100 835 q 54 847 75 847 q 26 839 39 847 q -4 811 13 831 l -22 789 q -75 822 -65 792 l -62 850 q 63 940 -22 940 q 138 921 96 940 l 222 881 q 244 872 233 875 q 267 868 256 868 q 326 904 294 867 l 344 925 q 397 892 382 924 l 385 864 q 260 774 343 774 q 185 793 226 774 z "},"ı":{"ha":356,"x_min":58,"x_max":236,"o":"m 236 586 l 236 0 q 185 -4 215 -4 q 133 0 154 -4 l 133 536 q 121 589 133 575 q 76 603 108 603 l 64 603 q 58 640 58 618 q 64 679 58 663 q 107 684 90 682 q 133 686 124 686 l 144 686 q 212 659 188 686 q 236 586 236 632 z "},"Ĳ":{"ha":997,"x_min":143,"x_max":879,"o":"m 143 0 l 143 949 q 194 953 163 953 q 249 949 225 953 l 249 0 q 194 -4 225 -4 q 143 0 163 -4 m 449 125 q 613 78 525 78 q 737 131 701 78 q 772 314 772 185 l 772 949 q 826 953 794 953 q 879 949 858 953 l 879 335 q 874 222 879 268 q 858 142 868 175 q 835 89 847 110 q 808 53 822 68 q 622 -14 747 -14 q 406 43 500 -14 q 449 125 415 90 z "},"ĳ":{"ha":721,"x_min":58,"x_max":601,"o":"m 236 586 l 236 0 q 185 -4 215 -4 q 133 0 154 -4 l 133 536 q 121 589 133 575 q 76 603 108 603 l 64 603 q 58 640 58 618 q 64 679 58 663 q 107 684 90 682 q 133 686 124 686 l 144 686 q 212 659 188 686 q 236 586 236 632 m 100 919 q 164 933 122 933 q 219 921 204 933 q 235 868 235 908 q 218 815 235 828 q 164 801 201 801 q 110 812 131 801 q 90 868 90 822 q 100 919 90 900 m 601 586 l 601 -24 q 600 -103 601 -62 q 584 -182 599 -144 q 535 -251 569 -219 q 436 -304 501 -283 q 404 -239 413 -281 q 450 -209 432 -225 q 479 -174 468 -193 q 494 -128 490 -154 q 499 -67 499 -103 l 499 536 q 486 589 499 575 q 442 603 474 603 l 417 603 q 411 640 411 626 q 417 679 411 653 q 464 684 443 682 q 501 686 485 686 l 513 686 q 578 659 554 686 q 601 586 601 632 m 465 919 q 529 933 488 933 q 585 921 569 933 q 600 868 600 908 q 583 815 600 828 q 529 801 567 801 q 476 812 496 801 q 456 868 456 822 q 465 919 456 900 z "},"Ĵ":{"ha":606,"x_min":14,"x_max":639,"o":"m 57 125 q 221 78 133 78 q 345 131 310 78 q 381 314 381 185 l 381 949 q 435 953 403 953 q 488 949 467 953 l 488 335 q 482 222 488 268 q 466 142 476 175 q 443 89 456 110 q 417 53 431 68 q 231 -14 356 -14 q 14 43 108 -14 q 57 125 24 90 m 588 1025 l 436 1129 l 279 1017 q 232 1067 240 1033 l 386 1217 q 485 1217 435 1225 l 639 1074 q 588 1025 626 1036 z "},"ĵ":{"ha":365,"x_min":-21,"x_max":357,"o":"m 246 586 l 246 18 q 246 -24 246 13 q 244 -88 246 -60 q 235 -158 243 -117 q 211 -222 228 -200 q 81 -304 168 -276 q 49 -239 57 -281 q 124 -174 104 -210 q 143 -67 143 -137 l 143 536 q 131 589 143 575 q 86 603 118 603 l 61 603 q 56 641 56 631 q 61 679 56 651 q 146 686 113 686 l 157 686 q 222 659 199 686 q 246 586 246 632 m 301 754 l 169 885 l 29 747 q -21 796 -4 761 l 126 979 q 217 981 161 989 l 357 804 q 301 754 339 768 z "},"Ķ":{"ha":810,"x_min":138,"x_max":779,"o":"m 779 29 q 715 -7 756 -7 q 658 9 674 -7 q 629 63 643 25 l 540 289 q 466 408 507 374 q 363 442 425 442 q 243 439 301 442 l 243 0 q 190 -4 222 -4 q 138 0 158 -4 l 138 949 q 190 953 158 953 q 243 949 222 953 l 243 533 l 344 536 q 392 569 371 536 l 596 900 q 628 940 614 929 q 664 951 642 951 q 728 949 686 951 l 736 938 l 503 560 q 460 508 482 526 q 564 458 526 499 q 638 331 601 417 l 722 114 q 779 29 746 56 m 486 -81 q 497 -156 497 -106 q 457 -260 497 -207 q 347 -344 417 -312 q 311 -297 318 -333 q 389 -167 389 -242 q 371 -94 389 -128 q 486 -81 422 -62 z "},"ķ":{"ha":681,"x_min":122,"x_max":650,"o":"m 529 249 l 583 126 q 650 22 619 44 q 589 -8 628 -8 q 534 8 550 -8 q 501 64 518 25 l 438 208 q 383 290 411 269 q 310 311 356 311 q 224 306 264 311 l 224 0 q 173 -4 203 -4 q 122 0 143 -4 l 122 1013 l 131 1021 l 168 1021 q 213 1005 201 1021 q 224 951 224 989 l 224 393 l 283 396 q 315 415 303 396 l 464 635 q 497 674 482 663 q 533 686 513 686 q 593 683 554 686 l 601 672 l 425 415 q 392 376 407 389 q 471 337 439 367 q 529 249 503 307 m 432 -81 q 443 -156 443 -106 q 403 -260 443 -207 q 293 -344 363 -312 q 257 -297 264 -333 q 335 -167 335 -242 q 317 -94 335 -128 q 432 -81 368 -62 z "},"ĸ":{"ha":681,"x_min":122,"x_max":650,"o":"m 529 249 l 583 126 q 650 22 618 44 q 589 -8 628 -8 q 534 8 550 -8 q 501 64 518 25 l 438 208 q 408 263 422 243 q 377 294 393 283 q 342 308 361 304 q 297 311 322 311 q 259 310 278 311 q 224 306 240 308 l 224 0 q 172 -4 203 -4 q 122 0 143 -4 l 122 678 l 131 686 l 168 686 q 213 669 201 686 q 224 615 224 653 l 224 393 l 283 396 q 315 415 303 396 l 464 635 q 499 676 485 667 q 540 686 514 686 q 564 685 551 686 q 593 683 576 685 l 601 672 l 425 415 q 392 376 407 390 q 471 337 439 367 q 529 249 503 307 z "},"Ŀ":{"ha":703,"x_min":138,"x_max":660,"o":"m 364 94 l 660 94 q 656 49 660 64 q 588 0 647 0 l 199 0 q 155 19 172 0 q 138 71 138 38 l 138 944 l 146 953 l 188 953 q 232 937 221 953 q 243 883 243 921 l 243 90 q 364 94 306 94 m 476 542 q 539 556 511 556 q 575 551 560 556 q 596 543 590 546 q 605 525 601 540 q 608 485 608 510 q 597 425 606 432 q 540 414 588 418 q 510 417 524 414 q 487 422 497 419 q 472 441 476 425 q 468 485 468 457 q 476 542 468 525 z "},"ŀ":{"ha":446,"x_min":119,"x_max":461,"o":"m 272 79 l 331 79 q 338 51 336 67 q 340 24 340 36 q 340 10 340 15 q 339 3 339 6 q 296 -4 317 -1 q 254 -7 275 -7 q 158 19 197 -7 q 119 110 119 44 l 119 1013 l 128 1021 l 165 1021 q 210 1005 199 1021 q 221 951 221 989 l 221 139 q 272 79 221 79 m 329 542 q 392 556 364 556 q 428 551 413 556 q 449 543 443 546 q 458 525 454 540 q 461 485 461 510 q 449 425 458 432 q 393 414 440 418 q 363 417 376 414 q 340 422 350 419 q 325 441 329 425 q 321 485 321 457 q 329 542 321 525 z "},"Ł":{"ha":708,"x_min":29,"x_max":665,"o":"m 250 883 l 250 535 l 511 621 l 518 617 q 519 531 529 575 l 250 443 l 250 90 q 369 94 313 94 l 665 94 q 663 49 665 64 q 594 0 654 0 l 206 0 q 160 18 178 0 q 143 71 143 36 l 143 413 l 49 381 l 42 385 q 39 469 29 425 l 143 504 l 143 944 l 151 953 l 194 953 q 239 937 228 953 q 250 883 250 921 z "},"ł":{"ha":433,"x_min":43,"x_max":382,"o":"m 307 79 l 365 79 q 372 51 371 67 q 374 25 374 36 q 373 11 374 17 q 372 3 372 6 q 268 -6 319 -6 q 186 24 218 -6 q 154 110 154 54 l 154 457 l 56 404 l 49 408 q 43 451 43 426 q 47 490 43 469 l 154 549 l 154 1013 l 163 1021 l 200 1021 q 244 1005 233 1021 q 256 951 256 989 l 256 604 l 368 665 l 376 661 q 382 617 382 640 q 378 579 382 597 l 256 513 l 256 139 q 307 79 256 79 z "},"Ń":{"ha":932,"x_min":138,"x_max":796,"o":"m 788 953 l 796 946 l 796 0 q 731 -4 769 -4 q 664 0 692 -4 l 326 629 q 232 821 285 707 l 228 821 q 236 521 236 563 l 236 0 q 185 -4 207 -4 q 138 0 163 -4 l 138 949 q 201 953 163 953 q 267 949 239 953 l 604 319 q 701 124 638 260 l 706 124 q 696 440 696 301 l 696 883 q 707 937 696 921 q 751 953 718 953 l 788 953 m 347 1071 l 613 1225 q 665 1132 653 1200 l 381 1013 q 347 1071 353 1032 z "},"ń":{"ha":757,"x_min":122,"x_max":658,"o":"m 643 476 l 643 132 q 658 14 643 53 q 593 -8 636 -8 q 540 60 540 -8 l 540 444 q 519 565 540 529 q 440 600 499 600 q 325 570 385 600 q 225 493 265 540 l 225 0 q 174 -4 204 -4 q 122 0 143 -4 l 122 678 l 131 686 l 169 686 q 214 669 203 686 q 225 614 225 651 l 225 594 q 336 666 272 639 q 464 693 400 693 q 600 633 557 693 q 643 476 643 574 m 294 789 l 485 1003 q 569 925 544 985 l 343 744 q 294 789 310 753 z "},"Ň":{"ha":932,"x_min":138,"x_max":796,"o":"m 788 953 l 796 946 l 796 0 q 731 -4 769 -4 q 664 0 692 -4 l 326 629 q 232 821 285 707 l 228 821 q 236 521 236 563 l 236 0 q 185 -4 207 -4 q 138 0 163 -4 l 138 949 q 201 953 163 953 q 267 949 239 953 l 604 319 q 701 124 638 260 l 706 124 q 696 440 696 301 l 696 883 q 707 937 696 921 q 751 953 718 953 l 788 953 m 318 1218 l 471 1114 l 626 1226 q 656 1206 642 1221 q 675 1176 671 1192 l 519 1026 q 422 1026 461 1021 l 268 1171 q 318 1218 281 1207 z "},"ň":{"ha":757,"x_min":122,"x_max":658,"o":"m 643 476 l 643 132 q 658 14 643 53 q 593 -8 636 -8 q 540 60 540 -8 l 540 444 q 519 565 540 529 q 440 600 499 600 q 325 570 385 600 q 225 493 265 540 l 225 0 q 174 -4 204 -4 q 122 0 143 -4 l 122 678 l 131 686 l 169 686 q 214 669 203 686 q 225 614 225 651 l 225 594 q 336 666 272 639 q 464 693 400 693 q 600 633 557 693 q 643 476 643 574 m 256 990 l 388 861 l 528 997 q 578 950 561 986 l 429 767 q 340 765 394 754 l 200 942 q 256 990 222 982 z "},"Œ":{"ha":1229,"x_min":79,"x_max":1154,"o":"m 689 143 l 688 90 q 774 93 735 93 l 1154 93 q 1150 49 1154 64 q 1082 0 1142 0 l 624 0 q 454 -17 478 -17 q 226 64 317 -17 q 79 475 79 196 q 115 708 79 599 q 226 885 151 818 q 454 965 317 965 q 624 949 474 965 l 1131 949 q 1133 905 1133 932 q 1126 857 1133 878 l 688 857 l 689 771 l 689 525 l 772 526 l 1060 526 q 1064 480 1064 501 q 1060 435 1064 458 l 772 435 q 689 436 719 435 l 689 143 m 586 86 l 586 861 q 481 876 510 874 q 421 875 453 878 q 344 849 389 872 q 270 788 299 826 q 224 694 242 749 q 192 499 192 597 q 203 335 192 400 q 242 207 215 269 q 324 108 269 144 q 449 72 378 72 q 586 86 519 72 z "},"œ":{"ha":1172,"x_min":72,"x_max":1093,"o":"m 1088 310 l 656 310 q 835 74 663 74 q 1036 132 929 74 q 1074 61 1067 104 q 821 -17 960 -17 q 594 121 657 -17 q 360 -17 525 -17 q 237 10 290 -17 q 147 83 183 36 q 91 195 110 129 q 72 340 72 261 q 91 485 72 419 q 147 599 110 551 q 237 672 183 646 q 360 699 290 699 q 597 554 528 699 q 825 699 667 699 q 940 676 889 699 q 1024 613 992 653 q 1075 519 1057 574 q 1093 401 1093 465 q 1092 355 1093 378 q 1088 310 1090 332 m 361 64 q 440 84 406 64 q 497 140 474 104 q 531 228 519 176 q 543 340 543 279 q 533 447 543 396 q 500 535 522 497 q 443 596 478 574 q 360 618 408 618 q 278 597 313 618 q 222 538 244 575 q 190 449 200 500 q 179 340 179 399 q 189 233 179 283 q 221 146 199 183 q 277 86 243 108 q 361 64 311 64 m 656 389 l 988 389 l 988 404 q 948 560 988 500 q 829 619 908 619 q 706 558 750 619 q 656 389 663 497 z "},"Ŕ":{"ha":822,"x_min":138,"x_max":771,"o":"m 146 949 l 426 953 q 649 881 569 953 q 728 678 728 808 q 679 517 728 585 q 546 425 631 450 q 639 313 603 407 l 711 125 q 742 62 726 86 q 771 26 757 38 q 697 -8 749 -8 q 652 7 668 -8 q 621 61 636 22 l 540 272 q 484 367 517 335 q 388 400 451 400 l 243 400 l 243 0 q 189 -4 218 -4 q 138 0 158 -4 l 138 940 l 146 949 m 243 865 l 243 489 q 315 491 272 490 q 415 492 357 492 q 512 507 474 492 q 574 547 550 522 q 607 606 597 572 q 617 678 617 640 q 607 751 617 717 q 574 810 597 785 q 510 849 550 835 q 411 864 471 864 q 311 864 353 864 q 243 865 269 864 m 288 1071 l 553 1225 q 606 1132 593 1200 l 321 1013 q 288 1071 293 1032 z "},"ŕ":{"ha":490,"x_min":85,"x_max":479,"o":"m 85 633 q 129 692 94 669 q 229 568 207 663 q 415 690 286 690 q 479 685 444 690 q 456 588 479 625 q 407 589 439 589 q 238 463 294 589 l 238 0 q 186 -4 217 -4 q 135 0 156 -4 l 135 492 q 85 633 135 586 m 186 789 l 376 1003 q 461 925 436 985 l 235 744 q 186 789 201 753 z "},"Ŗ":{"ha":822,"x_min":138,"x_max":771,"o":"m 146 949 l 426 953 q 649 881 569 953 q 728 678 728 808 q 679 517 728 585 q 546 425 631 450 q 639 313 603 407 l 711 125 q 742 62 726 86 q 771 26 757 38 q 697 -8 749 -8 q 652 7 668 -8 q 621 61 636 22 l 540 272 q 484 367 517 335 q 388 400 451 400 l 243 400 l 243 0 q 189 -4 218 -4 q 138 0 158 -4 l 138 940 l 146 949 m 243 865 l 243 489 q 315 491 272 490 q 415 492 357 492 q 512 507 474 492 q 574 547 550 522 q 607 606 597 572 q 617 678 617 640 q 607 751 617 717 q 574 810 597 785 q 510 849 550 835 q 411 864 471 864 q 311 864 353 864 q 243 865 269 864 m 488 -81 q 499 -156 499 -106 q 458 -260 499 -207 q 349 -344 418 -312 q 313 -297 319 -333 q 390 -167 390 -242 q 372 -94 390 -128 q 488 -81 424 -62 z "},"ŗ":{"ha":490,"x_min":78,"x_max":479,"o":"m 85 633 q 129 692 94 669 q 229 568 207 663 q 415 690 286 690 q 479 685 444 690 q 456 588 479 625 q 407 589 439 589 q 238 463 294 589 l 238 0 q 186 -4 217 -4 q 135 0 156 -4 l 135 492 q 85 633 135 586 m 253 -81 q 264 -156 264 -106 q 224 -260 264 -207 q 114 -344 183 -312 q 78 -297 85 -333 q 156 -167 156 -242 q 138 -94 156 -128 q 253 -81 189 -62 z "},"Ř":{"ha":822,"x_min":138,"x_max":771,"o":"m 146 949 l 426 953 q 649 881 569 953 q 728 678 728 808 q 679 517 728 585 q 546 425 631 450 q 639 313 603 407 l 711 125 q 742 62 726 86 q 771 26 757 38 q 697 -8 749 -8 q 652 7 668 -8 q 621 61 636 22 l 540 272 q 484 367 517 335 q 388 400 451 400 l 243 400 l 243 0 q 189 -4 218 -4 q 138 0 158 -4 l 138 940 l 146 949 m 243 865 l 243 489 q 315 491 272 490 q 415 492 357 492 q 512 507 474 492 q 574 547 550 522 q 607 606 597 572 q 617 678 617 640 q 607 751 617 717 q 574 810 597 785 q 510 849 550 835 q 411 864 471 864 q 311 864 353 864 q 243 865 269 864 m 257 1218 l 410 1114 l 565 1226 q 595 1206 581 1221 q 614 1176 610 1192 l 458 1026 q 361 1026 400 1021 l 207 1171 q 257 1218 219 1207 z "},"ř":{"ha":490,"x_min":85,"x_max":479,"o":"m 85 633 q 129 692 94 669 q 229 568 207 663 q 415 690 286 690 q 479 685 444 690 q 456 588 479 625 q 407 589 439 589 q 238 463 294 589 l 238 0 q 186 -4 217 -4 q 135 0 156 -4 l 135 492 q 85 633 135 586 m 147 990 l 279 861 l 419 997 q 469 950 453 986 l 321 767 q 232 765 286 754 l 92 942 q 147 990 114 982 z "},"Ś":{"ha":771,"x_min":54,"x_max":703,"o":"m 54 88 q 103 172 58 139 q 381 76 244 76 q 536 118 479 76 q 593 232 593 160 q 446 404 593 339 l 283 475 q 96 708 96 556 q 118 808 96 761 q 180 890 140 856 q 275 945 219 925 q 399 965 331 965 q 674 899 533 965 q 631 810 674 844 q 505 860 563 844 q 399 875 447 875 q 319 863 354 875 q 258 830 283 850 q 218 783 232 810 q 204 726 204 756 q 240 631 204 665 q 339 571 275 597 l 496 503 q 703 251 703 413 q 621 57 703 131 q 367 -17 539 -17 q 54 88 197 -17 m 278 1071 l 543 1225 q 596 1132 583 1200 l 311 1013 q 278 1071 283 1032 z "},"ś":{"ha":603,"x_min":51,"x_max":543,"o":"m 51 53 q 92 128 53 96 q 203 78 154 92 q 293 64 253 64 q 353 73 328 64 q 397 97 379 82 q 425 129 415 111 q 436 165 435 147 q 410 235 436 207 q 335 283 385 264 l 257 314 q 124 395 168 349 q 79 507 79 442 q 97 585 79 550 q 147 646 115 621 q 222 685 179 671 q 317 699 265 699 q 522 653 419 699 q 490 572 522 604 q 394 606 438 596 q 314 615 350 615 q 217 586 250 615 q 185 519 185 557 q 210 456 185 479 q 289 413 235 433 l 371 381 q 543 179 543 313 q 472 35 543 86 q 281 -17 401 -17 q 51 53 163 -17 m 213 789 l 403 1003 q 488 925 463 985 l 261 744 q 213 789 228 753 z "},"Š":{"ha":771,"x_min":54,"x_max":703,"o":"m 54 88 q 103 172 58 139 q 381 76 244 76 q 536 118 479 76 q 593 232 593 160 q 446 404 593 339 l 283 475 q 96 708 96 556 q 118 808 96 761 q 180 890 140 856 q 275 945 219 925 q 399 965 331 965 q 674 899 533 965 q 631 810 674 844 q 505 860 563 844 q 399 875 447 875 q 319 863 354 875 q 258 830 283 850 q 218 783 232 810 q 204 726 204 756 q 240 631 204 665 q 339 571 275 597 l 496 503 q 703 251 703 413 q 621 57 703 131 q 367 -17 539 -17 q 54 88 197 -17 m 247 1218 l 400 1114 l 556 1226 q 585 1206 571 1221 q 604 1176 600 1192 l 449 1026 q 351 1026 390 1021 l 197 1171 q 247 1218 210 1207 z "},"š":{"ha":603,"x_min":51,"x_max":543,"o":"m 51 53 q 92 128 53 96 q 203 78 154 92 q 293 64 253 64 q 353 73 328 64 q 397 97 379 82 q 425 129 415 111 q 436 165 435 147 q 410 235 436 207 q 335 283 385 264 l 257 314 q 124 395 168 349 q 79 507 79 442 q 97 585 79 550 q 147 646 115 621 q 222 685 179 671 q 317 699 265 699 q 522 653 419 699 q 490 572 522 604 q 394 606 438 596 q 314 615 350 615 q 217 586 250 615 q 185 519 185 557 q 210 456 185 479 q 289 413 235 433 l 371 381 q 543 179 543 313 q 472 35 543 86 q 281 -17 401 -17 q 51 53 163 -17 m 174 990 l 306 861 l 446 997 q 496 950 479 986 l 347 767 q 258 765 313 754 l 118 942 q 174 990 140 982 z "},"Ť":{"ha":671,"x_min":25,"x_max":649,"o":"m 465 857 l 389 858 l 389 0 q 336 -4 367 -4 q 282 0 306 -4 l 282 858 l 207 857 l 29 857 q 25 902 25 881 q 29 949 25 924 l 640 949 q 649 904 649 931 q 583 857 649 857 l 465 857 m 182 1218 l 335 1114 l 490 1226 q 520 1206 506 1221 q 539 1176 535 1192 l 383 1026 q 286 1026 325 1021 l 132 1171 q 182 1218 144 1207 z "},"ť":{"ha":471,"x_min":44,"x_max":463,"o":"m 424 682 q 428 642 428 661 q 424 603 428 624 l 247 604 l 247 138 q 301 79 247 79 l 407 79 q 417 32 417 56 q 414 3 417 8 q 282 -6 350 -6 q 147 110 147 -6 l 147 604 l 49 603 q 44 642 44 624 q 49 682 44 661 l 147 681 l 147 826 q 158 880 147 864 q 201 896 169 896 l 239 896 l 247 888 l 247 679 l 424 682 m 338 786 l 356 1068 q 463 1051 421 1076 l 401 782 q 338 786 369 769 z "},"Ů":{"ha":925,"x_min":126,"x_max":800,"o":"m 800 949 l 800 324 q 776 177 800 240 q 708 71 751 114 q 601 6 664 28 q 463 -17 539 -17 q 324 6 386 -17 q 217 71 261 28 q 150 177 174 114 q 126 324 126 240 l 126 944 l 135 953 l 176 953 q 221 937 210 953 q 232 883 232 921 l 232 325 q 292 137 232 203 q 463 71 353 71 q 633 135 572 71 q 693 325 693 200 l 693 949 q 746 953 714 953 q 800 949 776 953 m 463 932 q 401 944 429 932 q 353 975 374 956 q 322 1022 333 994 q 310 1078 310 1049 q 353 1183 310 1140 q 463 1225 396 1225 q 572 1183 529 1225 q 615 1078 615 1140 q 603 1022 615 1049 q 572 975 592 994 q 524 944 551 956 q 463 932 496 932 m 463 1157 q 412 1135 432 1157 q 392 1078 392 1113 q 412 1022 392 1044 q 463 1000 432 1000 q 513 1022 493 1000 q 533 1078 533 1044 q 513 1135 533 1113 q 463 1157 493 1157 z "},"ů":{"ha":758,"x_min":99,"x_max":674,"o":"m 115 204 l 115 550 q 99 668 115 624 q 164 690 122 690 q 217 622 217 690 l 217 238 q 239 115 217 150 q 317 81 261 81 q 432 110 372 81 q 532 188 492 140 l 532 681 q 554 685 540 683 q 583 686 568 686 q 612 685 599 686 q 635 681 625 683 l 635 192 q 674 43 635 81 q 626 -10 661 4 q 539 93 558 13 q 426 17 492 46 q 293 -12 360 -12 q 158 47 200 -12 q 115 204 115 107 m 374 744 q 313 756 340 744 q 265 788 285 768 q 233 834 244 807 q 221 890 221 861 q 264 995 221 953 q 374 1038 307 1038 q 483 995 440 1038 q 526 890 526 953 q 515 834 526 861 q 483 788 503 807 q 435 756 463 768 q 374 744 407 744 m 374 969 q 323 947 343 969 q 303 890 303 925 q 323 835 303 857 q 374 813 343 813 q 424 835 404 813 q 444 890 444 857 q 424 947 444 925 q 374 969 404 969 z "},"Ÿ":{"ha":668,"x_min":21,"x_max":650,"o":"m 403 585 l 547 949 q 570 953 558 951 q 594 954 582 954 q 646 947 618 954 l 650 939 l 389 308 l 389 0 q 335 -4 365 -4 q 282 0 303 -4 l 282 313 l 21 936 q 54 952 38 946 q 86 958 71 958 q 122 947 106 958 q 149 907 138 935 l 282 585 q 306 522 292 561 q 339 425 321 483 l 346 425 q 363 477 349 438 q 403 585 378 517 m 419 1136 q 443 1144 428 1142 q 475 1147 458 1147 q 535 1136 510 1147 q 543 1085 543 1108 q 542 1061 543 1072 q 536 1042 542 1050 q 516 1028 531 1033 q 475 1024 501 1024 q 435 1029 449 1024 q 416 1043 422 1035 q 409 1063 410 1051 q 408 1085 408 1074 q 419 1136 408 1114 m 143 1136 q 170 1144 154 1142 q 203 1147 186 1147 q 240 1142 226 1147 q 259 1129 253 1138 q 267 1109 265 1121 q 268 1085 268 1097 q 268 1063 268 1074 q 262 1043 268 1051 q 242 1029 256 1035 q 201 1024 228 1024 q 160 1029 174 1024 q 141 1043 147 1035 q 135 1063 135 1051 q 135 1085 135 1074 q 143 1136 135 1107 z "},"Ź":{"ha":768,"x_min":74,"x_max":693,"o":"m 90 125 l 464 707 q 571 860 485 739 l 567 864 q 349 854 519 854 l 113 854 q 108 896 108 872 q 117 949 108 919 l 667 949 q 682 875 682 894 q 665 826 682 856 l 294 251 q 185 93 282 231 l 189 89 q 335 96 261 96 l 517 96 q 683 118 635 96 q 693 63 693 89 q 615 0 693 0 l 89 0 q 74 74 74 50 q 90 125 74 99 m 268 1071 l 533 1225 q 586 1132 574 1200 l 301 1013 q 268 1071 274 1032 z "},"ź":{"ha":617,"x_min":57,"x_max":561,"o":"m 75 107 l 336 465 l 444 600 l 440 604 q 365 599 413 601 q 249 597 317 597 l 82 597 q 79 628 79 611 q 81 654 79 640 q 85 681 82 668 l 538 681 q 556 618 556 639 q 539 575 556 597 l 282 225 q 239 168 267 203 q 172 85 211 133 l 176 81 q 315 85 249 85 l 392 85 q 553 101 508 85 q 561 53 561 78 q 486 0 561 0 l 74 0 q 61 39 65 24 q 57 65 57 54 q 61 85 57 76 q 75 107 65 94 m 221 789 l 411 1003 q 496 925 471 985 l 269 744 q 221 789 236 753 z "},"Ż":{"ha":768,"x_min":74,"x_max":693,"o":"m 90 125 l 464 707 q 571 860 485 739 l 567 864 q 349 854 519 854 l 113 854 q 108 896 108 872 q 117 949 108 919 l 667 949 q 682 875 682 894 q 665 826 682 856 l 294 251 q 185 93 282 231 l 189 89 q 335 96 261 96 l 517 96 q 683 118 635 96 q 693 63 693 89 q 615 0 693 0 l 89 0 q 74 74 74 50 q 90 125 74 99 m 328 1047 q 320 1072 322 1058 q 318 1099 318 1085 q 334 1152 318 1139 q 392 1165 350 1165 q 449 1151 435 1165 q 463 1099 463 1136 q 451 1050 463 1067 q 393 1033 440 1033 q 328 1047 350 1033 z "},"ż":{"ha":617,"x_min":57,"x_max":561,"o":"m 75 107 l 336 465 l 444 600 l 440 604 q 365 599 413 601 q 249 597 317 597 l 82 597 q 79 628 79 611 q 81 654 79 640 q 85 681 82 668 l 538 681 q 556 618 556 639 q 539 575 556 597 l 282 225 q 239 168 267 203 q 172 85 211 133 l 176 81 q 315 85 249 85 l 392 85 q 553 101 508 85 q 561 53 561 78 q 486 0 561 0 l 74 0 q 61 39 65 24 q 57 65 57 54 q 61 85 57 76 q 75 107 65 94 m 249 919 q 313 933 271 933 q 368 921 353 933 q 383 868 383 908 q 367 815 383 828 q 313 801 350 801 q 259 812 279 801 q 239 868 239 822 q 249 919 239 900 z "},"":{"ha":768,"x_min":74,"x_max":693,"o":"m 90 125 l 464 707 q 571 860 485 739 l 567 864 q 349 854 519 854 l 113 854 q 108 896 108 872 q 117 949 108 919 l 667 949 q 682 875 682 894 q 665 826 682 856 l 294 251 q 185 93 282 231 l 189 89 q 335 96 261 96 l 517 96 q 683 118 635 96 q 693 63 693 89 q 615 0 693 0 l 89 0 q 74 74 74 50 q 90 125 74 99 m 238 1218 l 390 1114 l 546 1226 q 576 1206 561 1221 q 594 1176 590 1192 l 439 1026 q 342 1026 381 1021 l 188 1171 q 238 1218 200 1207 z "},"":{"ha":617,"x_min":57,"x_max":561,"o":"m 75 107 l 336 465 l 444 600 l 440 604 q 365 599 413 601 q 249 597 317 597 l 82 597 q 79 628 79 611 q 81 654 79 640 q 85 681 82 668 l 538 681 q 556 618 556 639 q 539 575 556 597 l 282 225 q 239 168 267 203 q 172 85 211 133 l 176 81 q 315 85 249 85 l 392 85 q 553 101 508 85 q 561 53 561 78 q 486 0 561 0 l 74 0 q 61 39 65 24 q 57 65 57 54 q 61 85 57 76 q 75 107 65 94 m 182 990 l 314 861 l 454 997 q 504 950 488 986 l 356 767 q 267 765 321 754 l 126 942 q 182 990 149 982 z "},"ȷ":{"ha":365,"x_min":49,"x_max":246,"o":"m 246 586 l 246 18 q 246 -24 246 13 q 244 -88 246 -60 q 235 -158 243 -117 q 211 -222 228 -200 q 81 -304 168 -276 q 49 -239 57 -281 q 124 -174 104 -210 q 143 -67 143 -137 l 143 536 q 131 589 143 575 q 86 603 118 603 l 61 603 q 56 641 56 631 q 61 679 56 651 q 146 686 113 686 l 157 686 q 222 659 199 686 q 246 586 246 632 z "},"ˆ":{"ha":553,"x_min":86,"x_max":464,"o":"m 408 754 l 276 885 l 136 747 q 86 796 103 761 l 233 979 q 324 981 268 989 l 464 804 q 408 754 446 768 z "},"ˇ":{"ha":553,"x_min":92,"x_max":469,"o":"m 147 990 l 279 861 l 419 997 q 469 950 453 986 l 321 767 q 232 765 286 754 l 92 942 q 147 990 114 982 z "},"˙":{"ha":553,"x_min":204,"x_max":349,"o":"m 214 919 q 278 933 236 933 q 333 921 318 933 q 349 868 349 908 q 332 815 349 828 q 278 801 315 801 q 224 812 244 801 q 204 868 204 822 q 214 919 204 900 z "},"˚":{"ha":553,"x_min":124,"x_max":429,"o":"m 276 744 q 215 756 243 744 q 167 788 188 768 q 135 834 147 807 q 124 890 124 861 q 167 995 124 953 q 276 1038 210 1038 q 386 995 343 1038 q 429 890 429 953 q 417 834 429 861 q 385 788 406 807 q 338 756 365 768 q 276 744 310 744 m 276 969 q 226 947 246 969 q 206 890 206 925 q 226 835 206 857 q 276 813 246 813 q 327 835 307 813 q 347 890 347 857 q 327 947 347 925 q 276 969 307 969 z "},"˜":{"ha":553,"x_min":40,"x_max":513,"o":"m 300 793 l 215 835 q 169 847 190 847 q 141 839 154 847 q 111 811 128 831 l 93 789 q 40 822 50 792 l 53 850 q 178 940 93 940 q 253 921 211 940 l 338 881 q 360 872 349 875 q 382 868 371 868 q 442 904 410 867 l 460 925 q 513 892 497 924 l 500 864 q 375 774 458 774 q 300 793 342 774 z "},"μ":{"ha":771,"x_min":107,"x_max":685,"o":"m 646 681 l 646 192 q 685 43 646 82 q 639 -10 671 6 q 553 86 572 13 q 360 -14 474 -14 q 221 39 274 -14 l 221 -235 q 169 -303 221 -303 q 107 -282 128 -303 q 122 -164 122 -244 l 122 681 q 173 686 140 686 q 224 681 206 686 l 224 238 q 265 121 224 163 q 371 79 306 79 q 544 183 474 79 l 544 681 q 595 686 561 686 q 646 681 629 686 z "},"ẞ":{"ha":849,"x_min":29,"x_max":794,"o":"m 153 0 l 153 565 l 33 564 q 29 608 29 585 q 33 653 29 632 l 153 650 l 153 708 q 174 819 153 771 q 232 901 194 868 q 322 952 269 935 q 440 969 375 969 q 557 950 504 969 q 647 895 610 931 q 703 810 683 860 q 724 700 724 761 q 703 592 724 650 l 700 592 l 703 590 q 608 544 640 575 q 576 479 576 513 q 590 435 576 460 q 639 383 604 411 l 690 342 q 769 253 743 299 q 794 169 794 208 q 777 95 794 129 q 728 36 760 61 q 654 -3 697 11 q 561 -17 611 -17 q 383 24 461 -17 q 397 65 385 42 q 425 100 408 88 q 488 74 457 82 q 549 67 519 67 q 646 92 607 67 q 685 160 685 118 q 669 212 683 183 q 621 269 656 240 l 564 317 q 469 469 469 394 q 508 567 469 524 q 613 635 546 611 q 621 692 621 664 q 574 835 621 779 q 436 890 528 890 q 302 840 347 890 q 257 697 257 789 l 257 0 q 204 -4 233 -4 q 153 0 174 -4 z "},"–":{"ha":718,"x_min":89,"x_max":631,"o":"m 625 322 l 93 322 q 89 365 89 340 q 93 413 89 389 l 625 413 q 631 365 631 392 q 625 322 631 339 z "},"—":{"ha":1096,"x_min":110,"x_max":986,"o":"m 982 322 l 114 322 q 110 365 110 340 q 114 413 110 389 l 982 413 q 986 365 986 389 q 982 322 986 342 z "},"‘":{"ha":286,"x_min":63,"x_max":249,"o":"m 76 731 q 63 825 63 760 q 102 947 63 889 q 217 1038 142 1006 q 240 1014 232 1029 q 249 983 249 999 q 163 865 165 936 q 203 857 189 863 q 224 842 218 851 q 230 819 229 833 q 231 788 231 806 q 224 745 231 760 q 207 724 218 731 q 180 716 196 717 q 143 715 164 715 q 76 731 96 715 z "},"’":{"ha":286,"x_min":38,"x_max":224,"o":"m 210 1019 q 224 938 224 993 q 68 713 224 776 q 45 735 53 719 q 38 767 38 751 q 122 885 121 814 q 83 892 97 888 q 63 906 69 897 q 56 928 57 915 q 56 961 56 942 q 61 1003 56 989 q 77 1025 67 1018 q 103 1033 88 1032 q 140 1035 119 1035 q 210 1019 190 1035 z "},"‚":{"ha":288,"x_min":47,"x_max":233,"o":"m 219 122 q 233 28 233 93 q 194 -94 233 -36 q 79 -185 154 -153 q 56 -163 64 -179 q 47 -131 47 -147 q 133 -12 131 -86 q 92 -5 106 -10 q 72 10 78 0 q 66 33 67 19 q 65 65 65 46 q 73 109 65 94 q 93 130 81 124 q 122 137 106 136 q 154 138 138 138 q 219 122 197 138 z "},"“":{"ha":524,"x_min":63,"x_max":486,"o":"m 76 731 q 63 825 63 760 q 102 947 63 889 q 217 1038 142 1006 q 240 1014 232 1029 q 249 983 249 999 q 163 865 165 936 q 203 857 189 863 q 224 842 218 851 q 230 819 229 833 q 231 788 231 806 q 224 745 231 760 q 207 724 218 731 q 180 716 196 717 q 143 715 164 715 q 76 731 96 715 m 314 731 q 300 825 300 760 q 340 947 300 889 q 454 1038 379 1006 q 478 1014 469 1029 q 486 983 486 999 q 400 865 403 936 q 441 857 426 863 q 461 842 456 851 q 467 819 467 833 q 468 788 468 806 q 462 745 468 760 q 444 724 456 731 q 417 716 433 717 q 381 715 401 715 q 314 731 333 715 z "},"”":{"ha":524,"x_min":38,"x_max":463,"o":"m 210 1019 q 224 938 224 993 q 68 713 224 776 q 45 735 53 719 q 38 767 38 751 q 122 885 121 814 q 83 892 97 888 q 63 906 69 897 q 56 928 57 915 q 56 961 56 942 q 61 1003 56 989 q 77 1025 67 1018 q 103 1033 88 1032 q 140 1035 119 1035 q 210 1019 190 1035 m 449 1019 q 463 938 463 993 q 307 713 463 776 q 284 735 292 719 q 276 767 276 751 q 361 885 360 814 q 322 892 336 888 q 302 906 308 897 q 295 928 296 915 q 294 961 294 942 q 300 1003 294 989 q 316 1025 306 1018 q 342 1033 326 1032 q 379 1035 358 1035 q 449 1019 429 1035 z "},"„":{"ha":525,"x_min":47,"x_max":472,"o":"m 219 122 q 233 28 233 93 q 194 -94 233 -36 q 79 -185 154 -153 q 56 -163 64 -179 q 47 -131 47 -147 q 133 -12 131 -86 q 92 -5 106 -10 q 72 10 78 0 q 66 33 67 19 q 65 65 65 46 q 73 109 65 94 q 93 130 81 124 q 122 137 106 136 q 154 138 138 138 q 219 122 197 138 m 458 122 q 472 28 472 93 q 433 -94 472 -36 q 318 -185 393 -153 q 294 -163 303 -179 q 286 -131 286 -147 q 372 -12 369 -86 q 331 -5 344 -10 q 311 10 317 0 q 305 33 306 19 q 304 65 304 46 q 312 109 304 94 q 332 130 319 124 q 360 137 344 136 q 393 138 376 138 q 458 122 436 138 z "},"•":{"ha":608,"x_min":164,"x_max":446,"o":"m 182 267 q 164 378 164 303 q 182 486 164 454 q 304 514 235 514 q 372 505 333 514 q 426 486 410 496 q 446 378 446 456 q 426 267 446 301 q 374 249 413 257 q 304 242 335 242 q 182 267 229 242 z "},"‹":{"ha":447,"x_min":47,"x_max":392,"o":"m 383 586 l 179 356 l 392 117 q 332 60 375 76 l 60 318 q 60 390 47 354 l 324 643 q 383 586 367 626 z "},"›":{"ha":447,"x_min":54,"x_max":392,"o":"m 63 117 l 268 347 l 54 586 q 115 643 74 626 l 386 385 q 392 349 392 371 q 386 313 392 326 l 124 60 q 63 117 82 76 z "},"⁄":{"ha":265,"x_min":-181,"x_max":446,"o":"m -181 0 l 343 949 q 394 956 360 956 q 446 949 429 956 l -76 0 q -129 -7 -94 -7 q -181 0 -164 -7 z "},"⁴":{"ha":583,"x_min":76,"x_max":503,"o":"m 319 489 l 319 603 l 97 603 q 76 656 76 636 q 97 718 76 676 l 263 1065 q 310 1063 283 1068 q 347 1044 336 1057 l 224 776 q 174 685 192 710 l 175 682 q 256 683 206 683 l 319 683 l 319 783 q 335 829 319 813 q 375 846 350 846 l 406 846 l 407 843 l 407 683 l 499 683 q 503 644 503 668 q 494 603 503 619 l 407 603 l 407 489 q 365 483 394 483 q 319 489 336 483 z "},"€":{"ha":790,"x_min":42,"x_max":747,"o":"m 693 740 q 476 824 581 824 q 260 586 296 824 l 578 586 q 582 546 582 564 q 578 507 582 528 l 253 507 q 251 448 251 489 q 253 388 251 407 l 578 388 q 582 347 582 365 q 578 308 582 329 l 261 308 q 476 76 299 76 q 693 160 581 76 q 747 89 732 133 q 464 -17 619 -17 q 153 308 199 -17 l 46 308 q 42 347 42 329 q 46 388 42 364 l 144 388 q 143 448 143 408 q 144 507 143 488 l 46 507 q 42 546 42 528 q 46 586 42 564 l 151 586 q 464 917 197 917 q 747 810 617 917 q 693 740 731 764 z "}}}
